<?xml version="1.0" standalone="no"?>
<!DOCTYPE svg PUBLIC "-//W3C//DTD SVG 20010904//EN"
 "http://www.w3.org/TR/2001/REC-SVG-20010904/DTD/svg10.dtd">
<svg version="1.0" xmlns="http://www.w3.org/2000/svg"
 width="500.000000pt" height="500.000000pt" viewBox="0 0 500.000000 500.000000"
 preserveAspectRatio="xMidYMid meet">

<g transform="translate(0.000000,500.000000) scale(0.100000,-0.100000)"
fill="#000000" stroke="none">
<path d="M1538 2664 c-34 -18 -48 -43 -48 -84 0 -51 17 -70 96 -106 63 -28 74
-37 74 -58 0 -14 -5 -28 -12 -32 -19 -12 -79 -5 -105 12 -23 14 -26 14 -44 -2
-27 -25 -24 -40 14 -57 51 -24 92 -29 136 -17 52 14 81 51 81 105 0 51 -21 73
-103 109 -31 14 -60 32 -63 41 -15 38 46 58 101 33 22 -10 27 -9 40 8 20 27
19 30 -19 48 -42 20 -112 20 -148 0z"/>
<path d="M1887 2673 c-4 -3 -7 -84 -7 -180 l0 -173 40 0 40 0 0 64 0 64 61 4
c54 4 66 9 90 36 57 63 31 160 -49 182 -41 11 -165 14 -175 3z m167 -69 c38
-38 10 -93 -52 -101 l-42 -6 0 62 0 61 39 0 c23 0 46 -7 55 -16z"/>
<path d="M2310 2513 c-29 -93 -55 -174 -58 -180 -3 -9 7 -13 32 -13 34 0 37 2
48 45 l12 46 61 -3 60 -3 9 -42 c9 -42 10 -43 48 -43 28 0 39 4 35 13 -2 6
-28 87 -58 180 l-53 167 -41 0 -41 0 -54 -167z m127 -39 c-3 -3 -20 -4 -39 -2
l-34 3 20 74 20 74 19 -72 c11 -40 17 -74 14 -77z"/>
<path d="M2690 2500 l0 -180 35 0 35 0 0 65 c0 49 4 67 15 71 22 9 41 -11 77
-77 30 -57 32 -59 70 -59 l40 0 -39 72 -40 71 31 28 c27 24 31 34 31 77 0 85
-45 112 -182 112 l-73 0 0 -180z m175 100 c37 -41 -3 -90 -76 -90 -29 0 -29 1
-29 55 l0 55 43 0 c31 0 49 -6 62 -20z"/>
<path d="M3110 2500 l0 -180 35 0 35 0 0 53 c1 39 6 59 23 79 l22 27 45 -79
c44 -77 46 -80 83 -80 20 0 37 3 37 6 0 4 -27 51 -60 106 -33 54 -60 101 -60
105 0 3 23 33 50 68 28 35 50 66 50 70 0 3 -17 5 -37 3 -34 -3 -44 -11 -93
-75 l-55 -73 -3 75 -3 75 -34 0 -35 0 0 -180z"/>
<path d="M0 2500 l0 -30 658 0 c361 0 667 3 680 6 25 7 30 39 6 48 -9 3 -315
6 -680 6 l-664 0 0 -30z"/>
<path d="M3568 2523 c-22 -6 -24 -39 -2 -47 9 -3 335 -6 725 -6 l709 0 0 30 0
30 -707 -1 c-390 -1 -716 -3 -725 -6z"/>
<path d="M1275 2178 c-4 -10 -14 -18 -22 -18 -10 0 -12 -6 -8 -21 5 -14 2 -25
-6 -30 -10 -6 -8 -9 9 -9 12 0 22 -4 22 -10 0 -5 -7 -10 -15 -10 -8 0 -15 -4
-15 -10 0 -5 5 -10 10 -10 7 0 7 -6 0 -19 -14 -27 -13 -36 4 -22 11 9 15 7 21
-11 7 -22 8 -22 12 6 3 22 7 26 13 16 5 -8 12 -11 16 -7 4 3 1 13 -6 22 -8 10
-9 15 -1 15 6 0 11 5 11 10 0 6 -7 10 -15 10 -8 0 -15 5 -15 10 0 6 9 10 20
10 18 0 20 -7 21 -57 0 -42 3 -52 9 -38 5 11 9 37 9 58 1 26 5 37 16 37 11 0
15 -12 15 -49 0 -28 5 -53 10 -56 6 -4 10 15 10 49 0 44 3 56 16 56 8 0 12 5
9 10 -3 6 -22 10 -41 10 -45 0 -41 20 7 34 24 7 29 11 16 14 -37 8 -67 -7 -67
-33 0 -16 -6 -25 -16 -25 -12 0 -15 6 -10 25 5 18 2 25 -8 25 -8 0 -16 8 -19
18 -4 16 -4 16 -12 0z m15 -48 c0 -5 -4 -10 -10 -10 -5 0 -10 5 -10 10 0 6 5
10 10 10 6 0 10 -4 10 -10z"/>
<path d="M2440 2164 c0 -13 -7 -15 -40 -9 -24 4 -40 3 -40 -3 0 -15 73 -20 87
-6 15 15 17 34 3 34 -5 0 -10 -7 -10 -16z"/>
<path d="M2470 2165 c0 -8 5 -15 10 -15 6 0 10 7 10 15 0 8 -4 15 -10 15 -5 0
-10 -7 -10 -15z"/>
<path d="M2971 2163 c-1 -14 -7 -23 -16 -23 -8 0 -15 -4 -15 -10 0 -5 7 -10
15 -10 21 0 19 -30 -2 -46 -17 -13 -17 -13 0 -14 12 0 17 -9 18 -32 l2 -33 4
30 c3 17 12 38 20 48 14 15 14 17 1 17 -8 0 -15 7 -15 15 0 15 10 19 35 16 6
-1 12 7 12 19 0 16 6 20 35 20 28 0 35 -4 35 -20 0 -11 5 -20 10 -20 14 0 13
33 -2 48 -20 20 -76 15 -88 -8 -14 -26 -24 -25 -38 3 l-11 22 0 -22z"/>
<path d="M2800 2156 c0 -10 -9 -16 -25 -16 -14 0 -25 -4 -25 -10 0 -5 8 -10
18 -10 15 0 17 -9 17 -57 l0 -58 33 -3 c18 -2 32 1 32 7 0 6 -13 11 -30 11
-16 0 -30 4 -30 9 0 14 28 33 40 26 5 -3 10 -2 10 4 0 5 3 16 6 24 4 11 -1 13
-20 10 -19 -4 -26 -1 -26 11 0 11 9 16 30 16 17 0 30 5 30 10 0 6 -12 10 -26
10 -14 0 -23 4 -19 9 3 5 1 12 -5 16 -5 3 -10 -1 -10 -9z"/>
<path d="M3450 2135 c0 -28 -4 -35 -20 -35 -13 0 -20 7 -20 20 0 11 -5 20 -11
20 -6 0 -9 -12 -7 -27 2 -22 9 -29 31 -31 23 -3 27 -8 27 -33 0 -22 -5 -29
-20 -29 -13 0 -20 7 -20 20 0 11 -4 20 -10 20 -5 0 -10 -13 -10 -30 l0 -30 70
0 70 0 0 30 c0 17 -4 30 -10 30 -5 0 -10 -9 -10 -20 0 -13 -7 -20 -20 -20 -16
0 -20 7 -20 30 0 25 4 30 24 30 17 0 25 7 28 25 3 14 1 28 -3 31 -5 3 -9 -4
-9 -15 0 -14 -6 -21 -20 -21 -16 0 -20 7 -20 35 0 19 -4 35 -10 35 -5 0 -10
-16 -10 -35z"/>
<path d="M1490 2145 c-4 -35 2 -89 11 -107 19 -36 89 -29 89 9 0 15 -2 15 -18
0 -37 -34 -64 -10 -73 67 -3 28 -7 42 -9 31z"/>
<path d="M1895 2150 c-4 -6 17 -10 54 -10 34 0 61 -3 61 -8 0 -4 -7 -18 -16
-30 -8 -12 -11 -22 -6 -22 6 0 19 15 31 33 l20 32 -37 7 c-55 10 -100 9 -107
-2z"/>
<path d="M2171 2104 c-52 -56 -63 -88 -16 -44 l25 23 0 -42 c0 -23 4 -40 9
-36 5 3 8 25 6 50 -3 33 1 50 17 70 39 50 10 35 -41 -21z"/>
<path d="M2535 2150 c-4 -6 17 -10 54 -10 34 0 61 -3 61 -8 0 -4 -7 -18 -16
-30 -8 -12 -11 -22 -6 -22 6 0 19 15 31 33 l20 32 -37 7 c-55 10 -100 9 -107
-2z"/>
<path d="M3195 2146 c-4 -10 -4 -39 1 -64 7 -35 16 -50 36 -62 26 -14 29 -13
50 8 12 12 17 22 11 22 -7 0 -15 -4 -18 -10 -9 -14 -42 -12 -52 3 -4 6 -10 37
-14 67 -4 41 -7 50 -14 36z"/>
<path d="M3040 2130 c-6 -11 -9 -26 -7 -33 3 -7 10 1 16 17 14 35 7 47 -9 16z"/>
<path d="M3637 2134 c-4 -12 -18 -25 -30 -29 l-22 -8 23 -4 c15 -3 22 -11 22
-29 0 -33 36 -67 63 -60 12 3 25 6 30 6 4 0 7 4 7 9 0 6 -16 7 -35 4 -31 -5
-36 -3 -45 21 -15 40 -13 46 15 46 19 0 25 -5 26 -22 l0 -23 11 23 c6 12 18
22 27 22 14 1 14 2 1 13 -9 7 -14 20 -12 31 2 11 0 16 -7 12 -6 -4 -11 -14
-11 -22 0 -8 -10 -14 -24 -14 -18 0 -26 6 -28 23 l-4 22 -7 -21z"/>
<path d="M1692 2083 c2 -42 7 -58 17 -58 8 0 16 6 19 14 3 8 0 11 -7 7 -7 -5
-11 7 -11 38 0 25 -5 48 -11 51 -7 5 -9 -13 -7 -52z"/>
<path d="M3067 2110 c-5 -21 -12 -30 -27 -30 -11 0 -20 -4 -20 -10 0 -5 5 -10
11 -10 7 0 5 -10 -5 -25 -18 -28 -6 -34 15 -9 12 15 14 14 20 -7 7 -24 7 -24
8 -1 1 26 13 28 31 7 7 -9 15 -13 18 -10 3 3 -3 14 -13 25 -10 11 -13 20 -7
20 7 0 12 5 12 10 0 6 -9 10 -20 10 -11 0 -20 4 -20 9 0 5 9 7 20 4 11 -3 20
0 20 6 0 6 -4 11 -10 11 -5 0 -10 7 -10 15 0 27 -17 16 -23 -15z"/>
<path d="M1811 2083 c-1 -24 4 -43 9 -43 12 0 12 24 0 60 -7 21 -8 19 -9 -17z"/>
<path d="M1957 2113 c-11 -10 -8 -103 3 -103 6 0 10 25 10 55 0 56 -1 60 -13
48z"/>
<path d="M2597 2113 c-11 -10 -8 -103 3 -103 6 0 10 25 10 55 0 56 -1 60 -13
48z"/>
<path d="M2325 2100 c-4 -6 7 -10 25 -10 l31 0 -7 -45 c-8 -59 2 -58 17 1 11
43 13 46 40 40 16 -3 29 -2 29 3 0 5 -21 11 -46 15 -64 8 -82 8 -89 -4z"/>
</g>
</svg>
