<svg width="746" height="417" viewBox="0 0 746 417" fill="none" xmlns="http://www.w3.org/2000/svg">
<path d="M109.303 228.619L119 206.5C119.156 206.349 126.11 212.391 126.326 212.365L145.18 210.008C145.653 209.949 146.102 210.232 146.253 210.684L148.88 218.567C148.953 218.786 148.948 219.024 148.866 219.24L138.828 245.53C138.64 246.022 138.101 246.284 137.597 246.128L124.176 241.963C124.055 241.925 123.943 241.865 123.844 241.786L109.372 230.115C108.905 229.738 108.873 229.038 109.303 228.619Z" fill="#4A4D50"/>
<path fill-rule="evenodd" clip-rule="evenodd" d="M195.066 108.109C195.516 107.927 195.966 107.746 196.415 107.566C195.966 107.746 195.516 107.927 195.066 108.109ZM153.138 65.1638C151.42 68.479 151.113 72.4983 152.634 76.2263C153.366 78.0198 154.448 79.5653 155.768 80.8162C154.448 79.5653 153.366 78.0197 152.634 76.2262C151.113 72.4983 151.42 68.479 153.138 65.1638ZM165.85 84.4016L167.978 119.463C167.614 119.621 167.251 119.779 166.889 119.937C167.251 119.779 167.614 119.621 167.979 119.463L165.85 84.4016C165.85 84.4016 165.85 84.4016 165.85 84.4016ZM128.373 138.067C126.366 139.148 124.657 140.121 123.3 140.966C123.3 140.966 123.3 140.966 123.3 140.966C124.657 140.121 126.366 139.148 128.373 138.067ZM30.5348 179.192C26.9863 185.554 24.6609 191.825 23.9103 197.457C21.8394 212.997 28.2739 225.665 37.8311 234.549C28.2739 225.665 21.8395 212.997 23.9105 197.457C24.661 191.825 26.9863 185.554 30.5348 179.192ZM57.2438 246.255C58.1531 246.576 59.0663 246.854 59.9803 247.092C59.0663 246.854 58.1532 246.576 57.2439 246.255C57.2439 246.255 57.2439 246.255 57.2438 246.255ZM128.139 205.994C128.139 205.995 128.139 205.994 128.139 205.994ZM242.978 88.3785C243.109 89.354 243.293 90.3177 243.528 91.2657C243.528 91.2657 243.528 91.2657 243.528 91.2657C242.464 86.963 242.441 82.3383 243.67 77.7541C244.295 75.4221 245.205 73.2428 246.353 71.2439C245.205 73.2428 244.294 75.4221 243.67 77.7541C242.712 81.3282 242.515 84.9269 242.978 88.3785ZM251.258 65.0373C249.781 60.6946 249.53 55.8818 250.807 51.1185C251.437 48.7659 252.396 46.589 253.621 44.6241C252.396 46.5891 251.437 48.7659 250.807 51.1185C249.53 55.8819 249.781 60.6946 251.258 65.0373ZM142.333 248.896C142.333 249.061 142.334 249.226 142.335 249.39L142.335 249.39C142.334 249.226 142.333 249.061 142.333 248.896C142.333 237.385 145.152 226.533 150.137 216.991C150.137 216.991 150.137 216.991 150.137 216.991C149.685 217.855 149.252 218.729 148.837 219.614L148.836 219.616C148.39 220.565 147.966 221.526 147.562 222.499C144.935 228.839 143.226 235.656 142.6 242.784C142.423 244.797 142.333 246.836 142.333 248.896ZM149.804 216.929C149.79 216.925 149.777 216.921 149.765 216.916C149.765 216.916 149.764 216.916 149.764 216.916C149.777 216.921 149.79 216.925 149.804 216.929ZM148.15 215.661C146.211 213.542 143.587 209.032 140.712 203.247ZM140.713 203.249C141.264 204.358 141.806 205.42 142.336 206.427C142.559 206.853 142.781 207.269 143 207.675C144.065 209.644 145.072 211.369 145.996 212.782C146.779 213.98 147.503 214.954 148.15 215.661M136.72 208.637C136.627 208.646 136.535 208.654 136.442 208.662C136.486 208.658 136.53 208.654 136.574 208.65C136.623 208.646 136.671 208.641 136.72 208.637ZM130.271 208.517C130.205 208.495 130.142 208.471 130.082 208.446C130.082 208.446 130.082 208.446 130.082 208.446C130.142 208.471 130.205 208.495 130.271 208.517ZM236.795 86.7125C227.094 89.3739 212.463 94.7188 196.998 100.871L181.354 81.0443C184.314 76.0543 184.989 69.7831 182.624 63.9876C178.618 54.1722 167.414 49.4624 157.599 53.468C147.783 57.4736 143.073 68.6779 147.079 78.4933C149.479 84.3741 154.458 88.4155 160.17 89.8561L161.736 115.643C146.101 122.515 131.932 129.2 123.659 133.808C115.967 128.74 106.403 125.929 95.2264 126.748C76.1238 128.148 57.7632 139.073 43.9529 152.399C30.2232 165.648 19.8685 182.365 17.9629 196.664C14.1308 225.42 35.5623 244.962 55.2462 251.912C63.8098 254.936 72.4847 254.684 79.4956 253.238C84.0474 252.299 88.2615 250.777 91.5234 249.036C96.7194 252.086 102.362 252.707 107.563 251.836C113.861 250.781 119.563 247.565 123.668 243.874L117.872 265.43L93.4386 269.234C91.6481 269.513 90.0796 270.586 89.1708 272.154C88.262 273.721 88.1104 275.616 88.7582 277.308L97.5988 300.401L80.068 317.84C78.7834 319.118 78.1451 320.908 78.3313 322.71C78.5116 324.455 79.4457 326.03 80.8829 327.026C80.8873 327.085 80.8925 327.144 80.8986 327.203C81.0848 329.005 82.0757 330.627 83.5945 331.615L101.342 343.163L97.8206 365.021C97.5325 366.81 98.0682 368.634 99.2783 369.982C99.5939 370.334 99.9466 370.644 100.328 370.908C100.424 372.219 100.95 373.477 101.846 374.475C103.056 375.824 104.811 376.554 106.62 376.46L131.029 375.203L139.916 392.758C140.187 393.293 140.533 393.779 140.94 394.202L142.483 397.25C143.301 398.867 144.806 400.027 146.578 400.407C148.35 400.787 150.198 400.346 151.608 399.207L170.839 383.663L192.841 394.946C194.454 395.773 196.353 395.827 198.01 395.093C199.667 394.359 200.903 392.916 201.373 391.166L204.122 380.943C216.749 388.531 231.537 392.896 247.333 392.896C259.337 392.896 270.766 390.374 281.106 385.829C296.5 404.774 320.001 416.896 346.333 416.896C369.924 416.896 391.248 407.164 406.499 391.513C420.875 398.795 437.133 402.896 454.333 402.896C490.422 402.896 522.294 384.856 541.429 357.329C551.094 356.237 560.293 353.596 568.769 349.661L573.291 358.594C573.631 359.266 574.089 359.858 574.636 360.349L577.291 365.594C578.11 367.211 579.615 368.371 581.387 368.751C583.158 369.131 585.007 368.69 586.416 367.551L618.073 341.963L654.293 360.538C655.905 361.365 657.805 361.419 659.461 360.685C661.118 359.951 662.354 358.507 662.825 356.757L673.396 317.449L713.616 311.187C715.406 310.908 716.975 309.835 717.884 308.268C718.792 306.7 718.944 304.805 718.296 303.113L703.743 265.099L732.602 236.392C733.886 235.114 734.525 233.324 734.338 231.521C734.152 229.719 733.161 228.097 731.643 227.109L730.272 226.217C730.374 225.664 730.397 225.093 730.338 224.521C730.152 222.719 729.161 221.097 727.643 220.109L698.166 200.929L703.998 164.722C704.286 162.933 703.75 161.109 702.54 159.761C701.829 158.968 700.93 158.389 699.942 158.066L699.998 157.722C700.286 155.933 699.75 154.109 698.54 152.761C697.33 151.412 695.575 150.682 693.766 150.775L653.559 152.846L638.73 123.552C638.39 122.881 637.932 122.288 637.386 121.798L634.73 116.552C633.912 114.936 632.407 113.775 630.635 113.395C628.863 113.016 627.015 113.457 625.605 114.596L593.949 140.184L557.729 121.609C556.117 120.782 554.217 120.728 552.56 121.462C550.904 122.196 549.667 123.64 549.197 125.389L542.021 152.076C540.715 149.484 539.284 146.967 537.737 144.531C536.557 142.077 535.266 139.686 533.871 137.366C537.93 132.514 541.13 126.81 543.162 120.422C551.542 94.0741 536.976 65.9213 510.628 57.5409C484.28 49.1606 456.128 63.7262 447.747 90.0742C447.144 91.9706 446.659 93.8783 446.29 95.7889C439.107 96.8207 432.203 98.7252 425.692 101.392C412.595 89.2956 395.074 81.8958 375.833 81.8958C367.433 81.8958 359.354 83.3072 351.826 85.9078C351.351 83.0928 350.494 80.3745 349.297 77.8252C350.159 76.0522 350.865 74.1745 351.392 72.2064C355.869 55.4993 345.954 38.3265 329.247 33.8498C328.105 33.5438 326.959 33.3049 325.814 33.1309C322.199 25.7694 315.538 19.933 306.979 17.6396C295.427 14.5442 283.65 18.7585 276.538 27.4358C262.317 26.2064 248.833 35.3004 245.011 49.5656C243.764 54.2206 243.684 58.9243 244.595 63.3539C241.521 66.9768 239.182 71.3195 237.874 76.2012C236.932 79.7167 236.593 83.2586 236.795 86.7125ZM127.657 237.624C126.899 237.96 126.229 238.444 125.68 239.038C125.661 238.704 125.614 238.369 125.537 238.037C125.049 235.915 123.449 234.224 121.357 233.619C117.89 232.616 116.026 231.394 114.899 230.305C114.667 230.08 114.45 229.847 114.245 229.6C118.317 226.045 123.846 221.088 129.246 214.454C130.407 214.726 131.526 214.792 132.307 214.816C133.629 214.857 135.057 214.792 136.396 214.687C137.57 214.595 138.762 214.465 139.88 214.321C140.226 214.895 140.567 215.441 140.902 215.956C141.493 216.864 142.105 217.741 142.733 218.538C139.785 225.191 137.776 232.352 136.874 239.847L132.825 237.771C131.213 236.944 129.313 236.89 127.657 237.624ZM170.347 83.2374L190.554 108.848L190.554 108.848L170.347 83.2374C170.347 83.2374 170.347 83.2374 170.347 83.2374ZM177.288 107.782L176.889 101.216L180.905 106.305L177.288 107.782ZM314.51 115.437C314.403 115.408 314.297 115.379 314.191 115.35C314.297 115.379 314.403 115.408 314.51 115.437Z" fill="#4A4D50"/>
<path fill-rule="evenodd" clip-rule="evenodd" d="M191.004 193.693C198.742 155.581 232.438 126.896 272.833 126.896C289.412 126.896 304.863 131.728 317.853 140.06C327.618 114.807 352.134 96.8959 380.833 96.8959C399.898 96.8959 417.117 104.8 429.392 117.509C439.854 112.624 451.525 109.896 463.833 109.896C507.387 109.896 542.962 144.061 545.219 187.052C584.448 193.66 614.333 227.788 614.333 268.896C614.333 312.478 580.743 348.215 538.039 351.629C520.177 378.89 489.358 396.896 454.333 396.896C436.489 396.896 419.737 392.222 405.234 384.032C390.933 400.49 369.848 410.896 346.333 410.896C320.203 410.896 297.074 398.047 282.92 378.323C272.25 383.803 260.153 386.896 247.333 386.896C204.255 386.896 169.333 351.974 169.333 308.896C169.333 308.735 169.334 308.575 169.335 308.415C155.799 295.817 147.333 277.845 147.333 257.896C147.333 228.731 165.428 203.792 191.004 193.693Z" fill="#4A4D50"/>
<path d="M633.377 126.262L653.525 166.062L698.074 163.768L690.98 207.809L728.37 232.138L696.744 263.598L712.693 305.258L668.615 312.121L657.031 355.199L617.337 334.843L582.644 362.885L562.497 323.085L517.947 325.379L525.041 281.338L487.651 257.009L519.277 225.549L503.329 183.888L547.406 177.026L558.991 133.948L598.684 154.304L633.377 126.262Z" fill="#4A4D50"/>
<path fill-rule="evenodd" clip-rule="evenodd" d="M647.131 163.19L689.338 161.017L682.617 202.742L718.041 225.792L688.078 255.598L703.188 295.067L661.428 301.569L650.453 342.382L612.847 323.096L579.978 349.663L560.89 311.956L518.683 314.13L525.404 272.405L489.981 249.355L519.943 219.549L504.833 180.08L546.593 173.578L557.569 132.765L595.175 152.051L628.043 125.484L647.131 163.19Z" fill="white"/>
<path d="M623.871 142.557L639.91 174.459L675.459 172.577L669.758 207.906L699.569 227.384L674.306 252.645L686.993 286.043L651.816 291.587L642.533 326.148L610.88 309.858L583.172 332.38L567.133 300.479L531.585 302.36L537.286 267.032L507.474 247.553L532.738 222.292L520.051 188.895L555.227 183.35L564.511 148.79L596.164 165.079L623.871 142.557Z" fill="#FFDC4E"/>
<path fill-rule="evenodd" clip-rule="evenodd" d="M639.91 174.459L623.871 142.557L596.164 165.079L564.511 148.79L555.227 183.35L520.051 188.895L532.738 222.292L507.474 247.553L537.286 267.032L531.585 302.36L567.133 300.479L583.172 332.38L610.88 309.858L642.533 326.148L651.816 291.587L686.993 286.043L674.306 252.645L699.569 227.384L669.758 207.906L675.459 172.577L639.91 174.459ZM670.721 176.834L637.511 178.591L622.533 148.8L596.658 169.832L567.088 154.615L558.416 186.897L525.54 192.079L537.396 223.291L513.786 246.899L541.649 265.104L536.323 298.104L569.533 296.346L584.511 326.138L610.386 305.105L639.956 320.323L648.627 288.041L681.504 282.858L669.647 251.646L693.258 228.038L665.395 209.833L670.721 176.834Z" fill="#4A4D50"/>
<path d="M733.833 229.635L730.401 223.152C729.703 221.833 728.65 220.736 727.362 219.985L723.333 217.635L730.333 235.135L733.833 229.635Z" fill="#4A4D50"/>
<path d="M180.398 242.669L193.329 268.214L221.922 266.741L217.369 295.008L241.367 310.624L221.069 330.816L231.305 357.554L203.015 361.959L195.579 389.608L170.103 376.542L147.836 394.54L134.905 368.996L106.312 370.468L110.865 342.202L86.8671 326.586L107.165 306.394L96.9292 279.656L125.219 275.251L132.655 247.602L158.131 260.667L180.398 242.669Z" fill="#4A4D50"/>
<path fill-rule="evenodd" clip-rule="evenodd" d="M188.368 267.85L214.619 266.498L210.439 292.449L232.471 306.785L213.835 325.322L223.233 349.87L197.26 353.914L190.434 379.298L167.045 367.303L146.603 383.826L134.731 360.374L108.481 361.726L112.661 335.776L90.6289 321.44L109.264 302.902L99.8666 278.354L125.839 274.31L132.665 248.927L156.054 260.921L176.497 244.398L188.368 267.85Z" fill="white"/>
<path d="M174.297 253.128L184.591 273.603L207.407 272.396L203.748 295.071L222.882 307.572L206.667 323.785L214.81 345.221L192.233 348.78L186.274 370.962L165.959 360.507L148.175 374.962L137.881 354.487L115.065 355.694L118.724 333.019L99.5899 320.518L115.805 304.304L107.662 282.869L130.239 279.31L136.197 257.128L156.513 267.583L174.297 253.128Z" fill="#FFDC4E"/>
<path fill-rule="evenodd" clip-rule="evenodd" d="M184.591 273.603L174.297 253.128L156.513 267.583L136.197 257.128L130.239 279.31L107.662 282.869L115.805 304.304L99.5899 320.518L118.724 333.019L115.065 355.694L137.881 354.487L148.175 374.962L165.959 360.507L186.274 370.962L192.233 348.78L214.81 345.221L206.667 323.785L222.882 307.572L203.748 295.071L207.407 272.396L184.591 273.603ZM202.669 276.652L182.192 277.736L172.958 259.371L157.007 272.336L138.775 262.953L133.428 282.857L113.15 286.053L120.463 305.303L105.901 319.863L123.087 331.092L119.803 351.438L140.28 350.354L149.514 368.719L165.464 355.754L183.697 365.137L189.044 345.233L209.321 342.037L202.009 322.787L216.57 308.227L199.385 296.998L202.669 276.652Z" fill="#4A4D50"/>
<path d="M91.6901 241.776C100.878 249.848 112.856 245.547 119.69 239.383C111.307 236.959 108.521 232.814 106.672 228.262C113.769 221.861 129.933 209.658 137.872 187.279C145.203 166.613 130.095 130.208 95.6652 132.732C61.2358 135.256 27.2241 172.593 23.9106 197.457C20.597 222.321 39.0575 239.833 57.244 246.255C71.7932 251.392 87.3183 245.561 91.6901 241.776Z" fill="#FFDC4E"/>
<path fill-rule="evenodd" clip-rule="evenodd" d="M49.5082 158.156C36.457 170.75 27.4668 185.912 25.893 197.721C22.7523 221.288 40.2225 238.123 57.9099 244.369C64.7548 246.785 71.8879 246.638 77.8795 245.402C83.934 244.154 88.5452 241.854 90.381 240.264C91.1366 239.61 92.2592 239.614 93.0101 240.274C97.0867 243.855 101.746 244.698 106.242 243.945C109.593 243.384 112.84 241.933 115.591 240.061C112.968 238.951 110.942 237.605 109.341 236.059C107.085 233.88 105.797 231.422 104.819 229.015C104.502 228.235 104.707 227.341 105.332 226.777C106.113 226.073 106.993 225.307 107.951 224.471C115.849 217.59 129.089 206.056 135.987 186.611C139.414 176.95 137.632 163.318 130.737 152.376C123.906 141.536 112.182 133.527 95.8114 134.727C79.226 135.942 62.5325 145.588 49.5082 158.156ZM46.7306 155.278C60.1479 142.33 77.675 132.045 95.519 130.737C113.578 129.414 126.623 138.345 134.121 150.243C141.554 162.039 143.661 176.942 139.757 187.948C132.485 208.445 118.453 220.645 110.561 227.506C110.041 227.959 109.547 228.388 109.084 228.795C109.845 230.417 110.772 231.879 112.12 233.182C113.813 234.817 116.295 236.319 120.246 237.461C120.943 237.663 121.476 238.227 121.639 238.934C121.802 239.642 121.569 240.382 121.03 240.868C117.382 244.158 112.341 246.98 106.903 247.89C101.855 248.736 96.4491 247.927 91.6424 244.314C88.8018 246.225 84.1395 248.195 78.6876 249.32C72.1864 250.661 64.2824 250.861 56.5781 248.14C37.8925 241.543 18.4416 223.354 21.928 197.193C23.6678 184.138 33.3402 168.199 46.7306 155.278Z" fill="#4A4D50"/>
<path d="M78.0849 198.484C74.018 197.62 53.6947 180.042 53.8135 178.282C53.7776 174.449 67.555 162.414 70.7221 163.512C73.8892 164.61 89.8289 186.017 89.9836 188.09C90.1383 190.163 82.1518 199.348 78.0849 198.484Z" fill="white"/>
<path fill-rule="evenodd" clip-rule="evenodd" d="M68.44 161.781C69.2118 161.518 70.3202 161.256 71.3771 161.622C71.8698 161.793 72.315 162.089 72.657 162.345C73.0283 162.623 73.4213 162.964 73.8221 163.341C74.6248 164.095 75.5535 165.08 76.5435 166.198C78.5285 168.44 80.8543 171.324 83.0706 174.22C85.2883 177.117 87.4183 180.054 89.0109 182.41C89.8051 183.584 90.4811 184.637 90.9705 185.479C91.2138 185.897 91.4279 186.293 91.59 186.641C91.7131 186.906 91.9383 187.409 91.978 187.941C92.0385 188.753 91.7251 189.528 91.492 190.022C91.2176 190.602 90.8377 191.227 90.4046 191.851C89.5346 193.104 88.3406 194.514 87.0205 195.814C85.7063 197.108 84.2003 198.359 82.6922 199.242C81.2741 200.072 79.4499 200.819 77.6693 200.44C76.8011 200.256 75.7846 199.722 74.8405 199.155C73.8264 198.547 72.6473 197.745 71.3851 196.829C68.8567 194.994 65.8979 192.627 63.0867 190.245C60.2756 187.863 57.5816 185.441 55.5855 183.49C54.5923 182.518 53.7416 181.634 53.1306 180.914C52.8291 180.559 52.5481 180.199 52.3336 179.862C52.227 179.694 52.1081 179.487 52.0128 179.256C51.9384 179.076 51.8042 178.711 51.8134 178.252C51.8176 177.268 52.2251 176.31 52.6451 175.542C53.1024 174.706 53.729 173.823 54.4405 172.944C55.8675 171.182 57.7721 169.27 59.7509 167.542C61.7278 165.815 63.8446 164.213 65.7158 163.099C66.6463 162.545 67.5774 162.075 68.44 161.781ZM55.9035 177.986C55.9768 178.081 56.0683 178.194 56.1803 178.326C56.6739 178.907 57.4233 179.692 58.3821 180.63C60.2904 182.496 62.9091 184.852 65.6723 187.193C68.4355 189.534 71.3126 191.834 73.735 193.592C74.9482 194.473 76.0231 195.2 76.8984 195.725C77.336 195.988 77.7032 196.187 77.9982 196.327C78.1447 196.397 78.2627 196.446 78.3542 196.48C78.3993 196.497 78.4345 196.509 78.4604 196.517C78.4732 196.521 78.483 196.523 78.49 196.525L78.4978 196.527C78.5004 196.528 78.4974 196.527 78.4998 196.527C78.5021 196.528 78.4984 196.527 78.5004 196.528C78.7534 196.581 79.4525 196.504 80.6709 195.79C81.7992 195.129 83.0427 194.117 84.2141 192.963C85.3797 191.816 86.4075 190.595 87.1185 189.57C87.4759 189.055 87.7263 188.628 87.8751 188.313C87.8899 188.282 87.903 188.253 87.9146 188.227C87.8234 188.042 87.6911 187.797 87.5123 187.489C87.0881 186.759 86.4686 185.791 85.6972 184.65C84.1586 182.374 82.0768 179.502 79.8944 176.651C77.7105 173.798 75.4479 170.995 73.5486 168.85C72.5965 167.774 71.7591 166.891 71.0833 166.256C70.7448 165.938 70.4704 165.705 70.2603 165.547C70.2098 165.51 70.1677 165.48 70.1337 165.457C70.0538 165.471 69.9226 165.502 69.7295 165.567C69.2326 165.737 68.568 166.056 67.762 166.536C66.1604 167.49 64.2413 168.93 62.3824 170.554C60.5255 172.176 58.7945 173.923 57.5493 175.461C56.9248 176.233 56.4561 176.91 56.1545 177.462C56.0323 177.685 55.9539 177.858 55.9035 177.986ZM88.0339 188.495C88.0339 188.495 88.0334 188.494 88.0325 188.491C88.0335 188.494 88.0339 188.495 88.0339 188.495Z" fill="#4A4D50"/>
<path d="M102.764 199.561C106.087 203.365 105.697 209.144 101.892 212.467C98.0878 215.79 92.3095 215.4 88.9862 211.596C85.6628 207.791 86.0529 202.013 89.8575 198.689C93.662 195.366 99.4402 195.756 102.764 199.561Z" fill="white"/>
<path fill-rule="evenodd" clip-rule="evenodd" d="M99.2608 209.454C101.402 207.584 101.621 204.333 99.7511 202.192C97.8811 200.051 94.6297 199.832 92.4889 201.702C90.3482 203.572 90.1287 206.823 91.9987 208.964C93.8687 211.105 97.1201 211.324 99.2608 209.454ZM101.892 212.467C105.697 209.144 106.087 203.365 102.764 199.561C99.4402 195.756 93.662 195.366 89.8575 198.689C86.0529 202.013 85.6628 207.791 88.9862 211.596C92.3095 215.4 98.0878 215.79 101.892 212.467Z" fill="#4A4D50"/>
<path fill-rule="evenodd" clip-rule="evenodd" d="M253.999 67.9499C255.141 66.8754 255.549 65.2333 255.045 63.7492C253.815 60.133 253.605 56.1287 254.67 52.1538C257.46 41.7417 267.975 35.4599 278.394 37.8231C280.072 38.2038 281.806 37.4683 282.699 35.997C287.076 28.7819 295.836 25.0069 304.39 27.2989C310.974 29.0631 315.866 33.9954 317.856 40.0342C318.387 41.6446 319.876 42.7454 321.571 42.7811C323.25 42.8165 324.955 43.0526 326.659 43.5091C338.031 46.5563 344.78 58.2458 341.733 69.6183C341.146 71.8066 340.243 73.8169 339.088 75.6177C338.256 76.9157 338.244 78.5767 339.057 79.8868C342.045 84.6999 343.108 90.6756 341.528 96.572C338.496 107.89 326.862 114.606 315.545 111.573C314.54 111.304 313.573 110.968 312.648 110.571C310.655 109.717 308.345 110.605 307.439 112.574C303.545 121.029 294.011 125.702 284.716 123.212C278.154 121.454 273.274 116.548 271.271 110.537C270.768 109.028 269.418 107.96 267.834 107.818C266.525 107.7 265.206 107.469 263.887 107.115C251.549 103.809 244.227 91.1274 247.533 78.7894C248.688 74.4798 250.98 70.7921 253.999 67.9499Z" fill="white"/>
<path d="M285.663 68.0429C283.804 68.8822 275.35 66.5891 274.257 64.6211C274.116 57.7474 282.116 44.066 298.056 45.8206C313.996 47.5752 315.577 62.7496 313.571 68.8024C311.564 74.8551 303.201 79.5114 300.794 82.0178C297.805 85.1305 297.493 89.9351 296.439 91.0822C295.385 92.2293 288.757 91.865 287.334 89.1509C285.911 86.4368 287.86 78.5022 290.34 76.0402C292.819 73.5782 297.425 72.0853 299.089 68.6265C300.753 65.1677 300.198 58.5859 293.009 59.022C286.224 59.4335 287.522 67.2037 285.663 68.0429Z" fill="#FFDC4E"/>
<path fill-rule="evenodd" clip-rule="evenodd" d="M314.368 54.8818C316.71 60.1091 316.629 65.9323 315.469 69.4316C314.279 73.0223 311.3 76.0043 308.623 78.2673C307.407 79.2953 306.181 80.2322 305.125 81.0399C304.993 81.1401 304.865 81.2384 304.739 81.3346C303.547 82.2474 302.71 82.9096 302.236 83.403C301.057 84.6306 300.346 86.2619 299.786 87.9248C299.648 88.3344 299.524 88.7327 299.401 89.1259L299.384 89.1824C299.269 89.5485 299.153 89.9209 299.037 90.2624C298.831 90.8712 298.503 91.7917 297.912 92.4352C297.445 92.9434 296.852 93.1992 296.433 93.338C295.974 93.4906 295.474 93.5822 294.985 93.6346C294.003 93.7397 292.861 93.7076 291.736 93.5435C290.614 93.3798 289.415 93.0711 288.351 92.5656C287.313 92.073 286.2 91.2952 285.562 90.0796C284.972 88.9536 284.831 87.5423 284.855 86.2668C284.879 84.9299 285.092 83.4625 285.426 82.0426C285.762 80.6194 286.232 79.1888 286.8 77.9255C287.354 76.6931 288.061 75.484 288.93 74.621C290.034 73.5253 291.54 72.5647 292.843 71.7338C293.221 71.4927 293.582 71.2625 293.91 71.0432C295.55 69.9498 296.707 68.9644 297.287 67.7595C297.917 66.4486 298.097 64.5336 297.518 63.1222C297.248 62.4632 296.826 61.9375 296.212 61.5763C295.589 61.21 294.621 60.9278 293.13 61.0183C291.853 61.0957 291.113 61.4963 290.62 61.953C290.088 62.4469 289.695 63.149 289.37 64.0498C289.144 64.6777 289.002 65.2306 288.849 65.8234C288.762 66.1595 288.673 66.5084 288.562 66.891C288.431 67.3467 288.257 67.8845 288.001 68.3682C287.749 68.8419 287.296 69.4996 286.485 69.8657C285.898 70.1311 285.252 70.1996 284.751 70.2164C284.206 70.2346 283.612 70.1963 283.013 70.1249C281.813 69.9818 280.44 69.6867 279.119 69.3067C277.801 68.9273 276.467 68.4439 275.358 67.8994C274.804 67.6277 274.265 67.321 273.8 66.9792C273.363 66.6577 272.848 66.2029 272.508 65.5923C272.35 65.3073 272.264 64.9879 272.257 64.6619C272.174 60.5832 274.426 54.9482 278.697 50.5861C283.055 46.1348 289.63 42.881 298.275 43.8325C306.988 44.7916 311.957 49.5006 314.368 54.8818ZM310.718 56.5174C308.855 52.3596 305.064 48.604 297.837 47.8085C290.541 47.0055 285.147 49.7152 281.555 53.3843C278.187 56.825 276.497 61.0068 276.279 63.8336C276.486 63.9737 276.766 64.1347 277.12 64.3085C277.961 64.7213 279.061 65.1277 280.226 65.4627C281.387 65.797 282.545 66.0408 283.487 66.1531C283.939 66.207 284.306 66.2263 284.581 66.2196C284.62 66.1084 284.666 65.9655 284.719 65.7833C284.773 65.5968 284.836 65.3541 284.908 65.0764C285.087 64.3894 285.321 63.4883 285.607 62.6942C286.039 61.4961 286.709 60.1261 287.9 59.021C289.13 57.8789 290.772 57.1539 292.887 57.0256C294.99 56.898 296.788 57.275 298.239 58.1282C299.699 58.9865 300.66 60.2407 301.219 61.605C302.299 64.2402 301.924 67.3455 300.891 69.4934C299.807 71.7472 297.829 73.2377 296.13 74.371C295.623 74.709 295.147 75.0133 294.702 75.2981C293.499 76.0673 292.519 76.6942 291.749 77.4593C291.378 77.8274 290.912 78.5333 290.448 79.5659C289.997 80.5675 289.604 81.7519 289.32 82.9594C289.035 84.17 288.872 85.3491 288.854 86.3402C288.835 87.3928 288.984 87.9911 289.105 88.2221C289.179 88.3636 289.428 88.6492 290.066 88.9523C290.678 89.2426 291.469 89.4622 292.314 89.5854C293.155 89.7082 293.957 89.7218 294.559 89.6573C294.754 89.6365 294.907 89.6096 295.021 89.5833C295.072 89.4651 295.149 89.273 295.25 88.9768C295.349 88.6843 295.451 88.3556 295.572 87.9703L295.582 87.9356C295.704 87.5442 295.841 87.1065 295.995 86.6492C296.602 84.8449 297.541 82.5175 299.351 80.6325C300.081 79.8727 301.192 79.013 302.307 78.1587C302.436 78.0605 302.565 77.9614 302.696 77.8613C303.76 77.0484 304.905 76.1727 306.041 75.2126C308.649 73.0076 310.856 70.635 311.672 68.1729C312.519 65.6196 312.65 60.8291 310.718 56.5174ZM295.234 89.5181C295.235 89.5182 295.229 89.5211 295.216 89.5262C295.228 89.5204 295.234 89.5179 295.234 89.5181ZM284.449 66.5244C284.449 66.5242 284.451 66.5201 284.456 66.5131C284.452 66.5211 284.449 66.5246 284.449 66.5244Z" fill="#4A4D50"/>
<path d="M296.813 105.52C295.472 109.027 291.363 110.716 287.636 109.291C283.909 107.866 281.975 103.867 283.316 100.359C284.657 96.8517 288.766 95.1633 292.493 96.5883C296.22 98.0132 298.154 102.012 296.813 105.52Z" fill="#FFDC4E"/>
<path fill-rule="evenodd" clip-rule="evenodd" d="M289.065 105.555C290.945 106.273 292.605 105.325 293.077 104.091C293.548 102.857 292.944 101.043 291.064 100.325C289.184 99.6057 287.524 100.554 287.053 101.788C286.581 103.022 287.185 104.836 289.065 105.555ZM287.636 109.291C291.363 110.716 295.472 109.027 296.813 105.52C298.154 102.012 296.22 98.0132 292.493 96.5883C288.766 95.1633 284.657 96.8517 283.316 100.359C281.975 103.867 283.909 107.866 287.636 109.291Z" fill="#4A4D50"/>
<path fill-rule="evenodd" clip-rule="evenodd" d="M189.492 187.616L187.473 188.414C163.373 197.929 146.333 221.428 146.333 248.896C146.333 267.689 154.304 284.614 167.06 296.487L168.345 297.683L168.335 299.439C168.334 299.591 168.333 299.744 168.333 299.896C168.333 340.765 201.464 373.896 242.333 373.896C254.503 373.896 265.975 370.961 276.092 365.765L279.159 364.19L281.169 366.991C294.605 385.713 316.546 397.896 341.333 397.896C363.642 397.896 383.641 388.029 397.214 372.409L399.357 369.943L402.2 371.549C416.119 379.409 432.196 383.896 449.333 383.896C482.953 383.896 512.539 366.617 529.693 340.437L530.767 338.798L532.72 338.642C573.362 335.393 605.333 301.376 605.333 259.896C605.333 220.773 576.891 188.285 539.555 181.997L536.393 181.464L536.225 178.262C534.078 137.384 500.248 104.896 458.833 104.896C447.122 104.896 436.027 107.491 426.084 112.134L423.498 113.342L421.514 111.288C409.962 99.3267 393.769 91.8959 375.833 91.8959C348.841 91.8959 325.773 108.739 316.584 132.502L314.817 137.072L310.694 134.427C298.328 126.496 283.624 121.896 267.833 121.896C229.377 121.896 197.291 149.204 189.924 185.489L189.492 187.616ZM309.384 128.952C297.147 121.918 282.96 117.896 267.833 117.896C227.438 117.896 193.742 146.581 186.004 184.693C160.428 194.792 142.333 219.731 142.333 248.896C142.333 268.845 150.799 286.817 164.335 299.415C164.334 299.575 164.333 299.735 164.333 299.896C164.333 342.974 199.255 377.896 242.333 377.896C255.153 377.896 267.25 374.803 277.92 369.323C292.074 389.047 315.203 401.896 341.333 401.896C364.848 401.896 385.933 391.49 400.234 375.032C414.737 383.222 431.489 387.896 449.333 387.896C484.358 387.896 515.177 369.89 533.039 342.629C575.743 339.215 609.333 303.478 609.333 259.896C609.333 218.788 579.448 184.66 540.219 178.052C537.962 135.061 502.387 100.896 458.833 100.896C446.525 100.896 434.854 103.624 424.392 108.509C412.117 95.7997 394.898 87.8959 375.833 87.8959C348.571 87.8959 325.084 104.057 314.43 127.322C313.868 128.549 313.342 129.795 312.853 131.06C311.715 130.33 310.559 129.627 309.384 128.952Z" fill="#4A4D50"/>
<path fill-rule="evenodd" clip-rule="evenodd" d="M187.473 188.414L189.492 187.616L189.924 185.489C197.291 149.204 229.377 121.896 267.833 121.896C283.624 121.896 298.328 126.496 310.694 134.427L314.817 137.072L316.584 132.502C325.773 108.739 348.841 91.8959 375.833 91.8959C393.769 91.8959 409.962 99.3267 421.514 111.288L423.498 113.342L426.084 112.134C436.027 107.491 447.122 104.896 458.833 104.896C500.248 104.896 534.078 137.384 536.225 178.262L536.393 181.464L539.555 181.997C576.891 188.285 605.333 220.773 605.333 259.896C605.333 301.376 573.362 335.393 532.72 338.642L530.767 338.798L529.693 340.437C512.539 366.617 482.953 383.896 449.333 383.896C432.196 383.896 416.119 379.409 402.2 371.549L399.357 369.943L397.214 372.409C383.641 388.029 363.642 397.896 341.333 397.896C316.546 397.896 294.605 385.713 281.169 366.991L279.159 364.19L276.092 365.765C265.975 370.961 254.503 373.896 242.333 373.896C201.464 373.896 168.333 340.765 168.333 299.896C168.333 299.744 168.334 299.591 168.335 299.439L168.345 297.683L167.06 296.487C154.304 284.614 146.333 267.689 146.333 248.896C146.333 221.428 163.373 197.929 187.473 188.414Z" fill="white"/>
<path d="M480.787 276.894L482.48 267.289C492.726 269.095 501.581 270.547 509.047 271.643C508.981 271.015 508.926 270.081 508.881 268.841C500.391 267.564 492.816 266.338 486.156 265.164L487.85 255.559C495.619 256.929 502.657 258.082 508.962 259.018C509.127 256.582 509.294 254.763 509.462 253.56L521.101 254.952C520.813 256.838 520.61 258.739 520.492 260.654C527.196 261.573 532.186 262.232 535.46 262.634L534.087 272.295C533.874 272.257 529.336 271.655 520.474 270.489L520.769 273.314C527.217 274.187 532.032 274.838 535.214 275.267L533.84 284.928C531.384 284.627 527.665 284.126 522.683 283.423C523.656 286.896 524.844 290.142 526.248 293.163L513.178 296.14C510.421 294.554 508.322 293.479 506.88 292.917C505.446 292.312 503.854 291.855 502.104 291.547C496.981 290.643 494.232 291.259 493.855 293.393C493.599 294.845 494.372 296.081 496.172 297.103C497.98 298.082 501.446 299.023 506.568 299.927C510.965 300.702 516.163 301.178 522.162 301.356L521.693 311.507C516.035 311.39 510.411 310.838 504.818 309.852C495.982 308.294 489.704 305.954 485.985 302.834C482.3 299.763 480.869 295.901 481.689 291.248C482.351 287.492 484.561 284.822 488.317 283.24C492.073 281.657 497.196 281.438 503.685 282.582C506.203 283.026 508.702 283.709 511.18 284.63L511.331 284.525C511.173 283.924 510.943 282.982 510.641 281.696C498.935 279.94 488.983 278.339 480.787 276.894Z" fill="#4A4D50"/>
<path d="M463.118 256.327C466.875 259.019 469.554 262.381 471.155 266.413C472.806 270.41 473.224 274.718 472.41 279.339C471.104 286.741 468.334 292.186 464.098 295.674C459.869 299.12 454.188 300.787 447.053 300.676L446.064 289.583C450.458 289.652 453.849 288.728 456.238 286.811C458.634 284.851 460.216 281.689 460.986 277.325C461.695 273.303 460.553 269.881 457.561 267.06C451.905 276.871 446.126 284.035 440.225 288.553C434.374 293.036 428.973 294.841 424.023 293.968C420.257 293.304 417.465 291.202 415.647 287.661C413.87 284.127 413.488 279.493 414.499 273.76C415.253 269.482 416.801 265.652 419.142 262.271C421.483 258.889 424.403 256.184 427.902 254.154C427.668 251.774 427.413 248.024 427.138 242.902L438.323 242.558C438.345 243.179 438.392 244.026 438.464 245.098C438.537 246.169 438.604 247.152 438.665 248.045C438.725 248.938 438.776 249.763 438.817 250.52C442.298 250.075 445.795 250.162 449.307 250.781C450.576 251.005 451.792 251.286 452.954 251.623C454.236 248.805 455.414 246.079 456.49 243.445L466.871 247.658C465.426 251.153 464.175 254.043 463.118 256.327ZM447.333 262.345L447.27 262.333C444.731 261.886 442.259 261.803 439.854 262.085C440.199 265.322 440.608 268.57 441.08 271.83C443.204 268.94 445.288 265.778 447.333 262.345ZM431.581 281.537C430.526 275.395 429.774 270.63 429.325 267.242C427.214 269.561 425.869 272.368 425.288 275.663C424.496 280.155 425.157 282.588 427.273 282.961C428.373 283.155 429.809 282.68 431.581 281.537Z" fill="#4A4D50"/>
<path d="M473.648 209.304L473.712 209.315C480.448 206.759 486.435 205.943 491.672 206.866C498.454 208.062 503.14 210.232 505.728 213.375C508.324 216.475 509.136 220.78 508.165 226.29C507.155 232.014 503.889 236.107 498.365 238.568C492.883 241.037 485.614 241.473 476.556 239.876C471.104 238.914 465.688 237.629 460.306 236.019L463.079 225.938C468.633 227.578 473.728 228.807 478.364 229.624C482.871 230.419 486.548 230.274 489.395 229.191C492.249 228.065 493.891 226.284 494.321 223.849C494.998 220.005 492.869 217.648 487.932 216.777C483.983 216.081 477.578 217.264 468.717 220.326L458.165 216.153C460.595 209.402 462.836 202.971 464.887 196.858L476.63 199.92C475.981 202.096 474.987 205.224 473.648 209.304ZM474.021 184.595C484.656 187.792 495.382 190.344 506.199 192.251L504.392 202.503C492.887 200.474 481.732 197.847 470.925 194.62L474.021 184.595Z" fill="#4A4D50"/>
<path d="M411.366 187.096L411.323 186.958L399.703 184.909L401.489 174.78L426.021 179.106L424.124 189.868C420.466 191.486 417.229 193.984 414.415 197.36C411.651 200.703 409.968 204.083 409.365 207.502C408.755 210.963 409.19 213.781 410.67 215.957C412.15 218.133 414.418 219.49 417.474 220.029C425.006 221.357 429.554 217.589 431.116 208.726C431.898 204.294 432.234 200.502 432.124 197.35C432.014 194.197 431.404 190.107 430.293 185.081L439.914 179.597C445.138 187.22 450.767 194.305 456.802 200.852L448.839 208.261C446.57 205.772 444.603 203.467 442.935 201.345L442.795 201.385C443.307 205.784 443.209 209.988 442.502 213.998C441.371 220.413 438.426 225.029 433.67 227.846C428.956 230.67 422.962 231.441 415.688 230.158C408.888 228.959 403.781 226.209 400.368 221.908C397.005 217.573 395.878 212.261 396.987 205.972C397.575 202.638 399.147 199.259 401.703 195.837C404.302 192.422 407.523 189.509 411.366 187.096Z" fill="#4A4D50"/>
<path d="M401.204 307.455L407.867 310.092C405.709 314.731 402.847 318.869 399.281 322.505C402.083 325.826 404.532 328.866 406.629 331.624L401.291 335.983C399.14 333.118 396.744 330.125 394.102 327.002C389.782 330.213 384.765 332.752 379.05 334.62L375.973 328.229C381.092 326.427 385.515 324.148 389.242 321.393C386.7 318.532 384.188 315.847 381.706 313.338L386.867 308.948C388.939 311.019 391.443 313.678 394.38 316.926C396.978 314.216 399.252 311.059 401.204 307.455Z" fill="#4A4D50"/>
<path d="M410.331 328.256L411.518 321.519L441.299 326.771L440.111 333.507L410.331 328.256Z" fill="#4A4D50"/>
<path d="M445.879 346.404L442.437 341.045C445.154 339.599 447.306 337.895 448.895 335.933C450.512 333.951 451.882 331.159 453.004 327.555L445.418 326.217L446.48 320.19L454.564 321.616C454.79 320.608 455.105 318.957 455.51 316.665L462.068 317.821C461.76 319.57 461.433 321.218 461.087 322.766L474.134 325.066L473.196 330.384C472.571 333.93 471.971 336.846 471.397 339.133C470.851 341.401 470.296 343.24 469.73 344.651C469.188 346.067 468.545 347.086 467.801 347.711C467.085 348.316 466.364 348.676 465.637 348.791C464.91 348.907 463.979 348.865 462.844 348.665C460.906 348.323 458.338 347.687 455.138 346.757L456.733 340.824C459.386 341.536 461.078 341.956 461.811 342.085C462.308 342.173 462.707 342.048 463.01 341.712C463.341 341.356 463.705 340.469 464.101 339.053C464.524 337.616 464.995 335.433 465.511 332.502L465.98 329.843L459.563 328.712C458.163 333.339 456.4 336.976 454.276 339.623C452.176 342.275 449.377 344.535 445.879 346.404Z" fill="#4A4D50"/>
<path d="M476.273 339.883L477.461 333.147L507.242 338.398L506.054 345.134L476.273 339.883Z" fill="#4A4D50"/>
<path d="M320.685 293.788L288.482 299.467L279.248 282.512L247.044 288.191L244.313 307.255L214.474 312.516L230.433 205.215L268.989 198.416L320.685 293.788ZM253.656 233.258L250.358 265.521L268.38 262.343L254.394 233.128L253.656 233.258Z" fill="#FFDC4E"/>
<path d="M366.47 203.618L354.505 205.728L364.69 263.487L376.655 261.377L380.51 283.239L325.262 292.981L321.407 271.118L333.373 269.009L323.188 211.25L311.223 213.359L307.394 191.644L362.641 181.903L366.47 203.618Z" fill="#FFDC4E"/>
<path fill-rule="evenodd" clip-rule="evenodd" d="M324.3 300.925C323.607 301.276 322.858 301.528 322.074 301.667L289.871 307.345C286.487 307.942 283.1 306.311 281.457 303.293L274.973 291.39L254.142 295.063L252.233 308.389C251.742 311.812 249.108 314.533 245.703 315.133L215.863 320.395C213.33 320.841 210.737 320.043 208.893 318.249C207.05 316.454 206.182 313.883 206.561 311.339L222.521 204.038C223.027 200.633 225.654 197.934 229.044 197.336L267.6 190.538C270.989 189.94 274.382 191.578 276.022 194.604L314.942 266.406C316.118 264.792 317.896 263.614 320.018 263.24L324.105 262.519L316.699 220.517L312.612 221.238C308.261 222.005 304.112 219.1 303.344 214.749L299.515 193.034C298.748 188.682 301.654 184.533 306.005 183.766L361.252 174.024C365.604 173.257 369.753 176.162 370.52 180.514L374.349 202.229C375.116 206.58 372.211 210.729 367.86 211.496L363.773 212.217L371.179 254.219L375.266 253.498C379.617 252.731 383.766 255.636 384.534 259.988L388.388 281.85C389.156 286.201 386.25 290.351 381.899 291.118L326.652 300.86C325.854 301 325.064 301.017 324.3 300.925ZM380.51 283.239L376.655 261.377L364.69 263.487L354.505 205.728L366.471 203.618L362.642 181.903L307.394 191.644L311.223 213.359L323.188 211.25L333.373 269.009L321.407 271.118L325.262 292.981L380.51 283.239ZM268.989 198.416L230.433 205.215L214.474 312.516L244.313 307.255L247.045 288.191L279.248 282.512L288.482 299.467L320.685 293.788L268.989 198.416ZM250.358 265.521L268.38 262.343L254.395 233.128L253.656 233.258L250.358 265.521Z" fill="#4A4D50"/>
<path d="M471.853 138.4C472.69 135.768 475.502 134.313 478.133 135.15L493.459 140.025C496.091 140.862 497.545 143.674 496.708 146.305L490.704 165.182C489.867 167.814 487.056 169.269 484.424 168.432L469.098 163.557C466.466 162.72 465.012 159.908 465.849 157.277L471.853 138.4Z" fill="white"/>
<path fill-rule="evenodd" clip-rule="evenodd" d="M492.247 143.837L476.921 138.962C476.394 138.795 475.832 139.086 475.665 139.612L469.661 158.489C469.493 159.015 469.784 159.578 470.31 159.745L485.637 164.62C486.163 164.787 486.725 164.496 486.893 163.97L492.897 145.093C493.064 144.567 492.773 144.004 492.247 143.837ZM478.133 135.15C475.502 134.313 472.69 135.768 471.853 138.4L465.849 157.277C465.012 159.908 466.466 162.72 469.098 163.557L484.424 168.432C487.056 169.269 489.867 167.814 490.704 165.182L496.708 146.305C497.545 143.674 496.091 140.862 493.459 140.025L478.133 135.15Z" fill="#4A4D50"/>
<path fill-rule="evenodd" clip-rule="evenodd" d="M496.714 144.12C496.618 145.221 495.648 146.035 494.547 145.938L482.117 144.848L492.962 150.708L491.869 154.463L478.956 153.543L490.139 159.585L489.015 163.337L468.498 161.561C467.397 161.466 466.582 160.497 466.678 159.396C466.773 158.296 467.742 157.481 468.843 157.576L479.754 158.521L468.885 152.648L469.978 148.893L482.891 149.813L471.708 143.771L472.834 140.019L494.897 141.953C495.997 142.05 496.811 143.02 496.714 144.12Z" fill="#4A4D50"/>
<path fill-rule="evenodd" clip-rule="evenodd" d="M533.632 117.391C526.926 138.476 504.397 150.132 483.312 143.426C462.227 136.72 450.571 114.19 457.277 93.1054C463.983 72.0204 486.513 60.3643 507.597 67.0707C528.682 73.777 540.339 96.3063 533.632 117.391Z" fill="#FFDC4E"/>
<path fill-rule="evenodd" clip-rule="evenodd" d="M483.312 143.426C504.396 150.132 526.926 138.476 533.632 117.391C540.338 96.3062 528.682 73.777 507.597 67.0706C486.512 60.3643 463.983 72.0204 457.277 93.1053C450.57 114.19 462.227 136.72 483.312 143.426ZM482.099 147.238C505.289 154.614 530.068 141.794 537.444 118.604C544.82 95.4134 532 70.6347 508.81 63.2588C485.62 55.8828 460.841 68.7028 453.465 91.8929C446.089 115.083 458.909 139.862 482.099 147.238Z" fill="#4A4D50"/>
<path fill-rule="evenodd" clip-rule="evenodd" d="M490.373 147.622C490.196 147.4 490.006 147.161 489.803 146.908C490.006 147.161 490.196 147.4 490.373 147.622ZM490.989 148.405C491.2 148.678 491.434 148.923 491.686 149.139C491.434 148.923 491.2 148.678 490.989 148.405C490.989 148.405 490.989 148.405 490.989 148.405ZM478.946 130.238L478.951 130.25C479.086 130.557 479.224 130.862 479.364 131.162M476.395 116.46C476.401 116.407 476.408 116.354 476.414 116.301C476.408 116.354 476.401 116.407 476.395 116.46ZM476.784 114.217C476.682 114.652 476.596 115.086 476.525 115.52C476.596 115.086 476.682 114.652 476.784 114.217C478.046 108.857 480.752 104.793 484.449 102.392C485.689 101.585 487.003 100.994 488.346 100.611C487.127 100.959 485.932 101.478 484.794 102.173C484.686 102.24 484.578 102.308 484.47 102.378L484.449 102.392C480.752 104.793 478.046 108.857 476.784 114.217ZM489.016 147.525L489.022 147.532L489.022 147.532C489.486 148.113 489.881 148.607 490.198 149.017C492.228 151.637 495.997 152.115 498.616 150.086C501.236 148.057 501.714 144.288 499.685 141.668C499.262 141.123 498.783 140.521 498.274 139.883L498.273 139.882L498.272 139.881L498.272 139.88L498.27 139.878L498.268 139.875C497.215 138.555 496.012 137.046 494.782 135.376C498.797 132.447 502.537 128.512 504.73 123.249C507.22 117.271 507.4 111.88 505.337 107.443C503.326 103.119 499.664 100.749 496.563 99.763C492.456 98.4569 487.829 99.0027 483.904 101.553C479.952 104.121 477.12 108.427 475.811 113.988C474.428 119.861 475.865 125.687 478.011 130.596C475.107 131.635 472.435 132.317 470.535 132.766C467.311 133.53 465.316 136.763 466.079 139.987C466.842 143.212 470.075 145.207 473.3 144.444C475.738 143.866 479.749 142.85 484.126 141.112C485.944 143.679 487.718 145.899 489.012 147.52L489.016 147.525L489.016 147.525ZM478.243 125.377C478.265 125.452 478.286 125.527 478.308 125.602C477.264 122.024 476.87 118.217 477.758 114.447C478.972 109.286 481.553 105.466 484.993 103.23C485.314 103.022 485.64 102.829 485.971 102.651C485.64 102.829 485.314 103.022 484.993 103.23C483.488 104.208 482.148 105.49 481.014 107.054C479.556 109.065 478.441 111.544 477.758 114.447C477.697 114.703 477.643 114.961 477.594 115.218C476.948 118.625 477.311 122.047 478.219 125.29C478.227 125.319 478.235 125.348 478.243 125.377ZM494.11 110.663C494.618 110.991 495.075 111.463 495.363 112.081C495.768 112.952 496.248 115.005 494.575 119.019C494.419 119.395 494.246 119.763 494.058 120.124C494.246 119.763 494.419 119.395 494.575 119.019C496.248 115.005 495.768 112.952 495.363 112.081C495.075 111.463 494.618 110.991 494.11 110.663ZM491.171 124.031C490.999 124.206 490.824 124.378 490.644 124.548C490.446 124.736 490.243 124.921 490.036 125.103C489.721 125.38 489.396 125.65 489.061 125.914C488.794 126.124 488.521 126.33 488.242 126.532C488.242 126.532 488.242 126.532 488.242 126.532C489.312 125.756 490.295 124.924 491.171 124.031ZM493.229 110.245C493.246 110.251 493.263 110.257 493.281 110.263C493.263 110.257 493.246 110.251 493.229 110.245C493.229 110.245 493.229 110.245 493.229 110.245ZM493.652 118.635C492.654 121.031 490.924 123.128 488.658 124.957C487.373 121.749 486.965 118.973 487.491 116.738C488.232 113.59 489.553 112.193 490.442 111.615C491.355 111.022 492.248 110.983 492.926 111.198C493.534 111.392 494.147 111.838 494.456 112.503C494.711 113.052 495.249 114.801 493.652 118.635ZM496.06 111.264C496.015 111.189 495.967 111.115 495.918 111.044C496.049 111.234 496.167 111.439 496.27 111.659C496.825 112.853 497.246 115.208 495.499 119.404C495.022 120.548 494.407 121.619 493.677 122.623C493.768 122.498 493.858 122.371 493.945 122.244C494.149 121.946 494.344 121.643 494.527 121.334C494.659 121.113 494.785 120.888 494.905 120.661C494.998 120.485 495.087 120.308 495.173 120.129C495.211 120.052 495.247 119.975 495.283 119.897C495.358 119.734 495.43 119.57 495.499 119.404C496.809 116.257 496.9 114.146 496.629 112.783C496.539 112.329 496.408 111.958 496.27 111.659C496.206 111.522 496.135 111.39 496.06 111.264Z" fill="white"/>
<path fill-rule="evenodd" clip-rule="evenodd" d="M486.011 105.124C488.932 103.226 492.315 102.849 495.278 103.791C497.553 104.515 500.196 106.246 501.638 109.346C503.098 112.484 503.159 116.661 500.965 121.927C498.58 127.654 493.932 131.675 489.072 134.494C491.163 137.69 493.399 140.493 495.103 142.63C495.604 143.258 496.059 143.828 496.451 144.334C497.127 145.208 496.968 146.464 496.095 147.14C495.221 147.817 493.965 147.657 493.289 146.784C492.939 146.333 492.518 145.806 492.043 145.211C490.29 143.015 487.806 139.904 485.508 136.349C480.342 138.763 475.245 140.072 472.306 140.768C471.232 141.022 470.154 140.357 469.899 139.282C469.645 138.207 470.31 137.13 471.385 136.875C474.179 136.214 478.784 135.024 483.436 132.9C480.484 127.561 478.204 121.192 479.632 115.121C480.752 110.363 483.081 107.027 486.011 105.124ZM486.997 131.073C491.442 128.508 495.333 125.047 497.273 120.389C499.169 115.837 498.868 112.874 498.011 111.033C497.137 109.153 495.512 108.063 494.066 107.603C492.246 107.024 490.107 107.232 488.191 108.478C486.282 109.718 484.457 112.084 483.526 116.038C482.434 120.675 484.163 125.979 486.997 131.073Z" fill="#4A4D50"/>
<path fill-rule="evenodd" clip-rule="evenodd" d="M483.312 143.426C504.396 150.132 526.926 138.476 533.632 117.391C540.338 96.3062 528.682 73.777 507.597 67.0706C486.512 60.3643 463.983 72.0204 457.277 93.1053C450.57 114.19 462.227 136.72 483.312 143.426ZM482.099 147.238C505.289 154.614 530.068 141.794 537.444 118.604C544.82 95.4134 532 70.6347 508.81 63.2588C485.62 55.8828 460.841 68.7028 453.465 91.8929C446.089 115.083 458.909 139.862 482.099 147.238Z" fill="#4A4D50"/>
<path d="M467.833 151.135L471.333 139.635L482.333 144.135L496.833 148.135L492.833 157.635L487.833 149.635L488.333 147.135L477.333 144.635L475.333 145.635H474.333L473.333 146.135L467.833 151.135Z" fill="#4A4D50"/>
<path d="M527.521 55.5574C525.705 54.3695 528.784 44.5374 530.551 39.7698C533.133 38.2995 542.319 44.701 542.472 47.5651C542.625 50.4293 529.792 57.0422 527.521 55.5574Z" fill="#FFDC4E"/>
<path fill-rule="evenodd" clip-rule="evenodd" d="M543.732 45.3097C544.08 45.8837 544.425 46.6286 544.469 47.4582C544.527 48.5324 543.993 49.4271 543.564 49.9954C543.091 50.6227 542.462 51.2242 541.789 51.7765C540.435 52.889 538.649 54.0095 536.836 54.9623C535.022 55.9163 533.088 56.7506 531.411 57.2534C530.579 57.5031 529.741 57.692 528.978 57.7516C528.303 57.8042 527.287 57.7936 526.427 57.2312C525.555 56.6611 525.235 55.7592 525.104 55.1631C524.963 54.5222 524.948 53.8207 524.983 53.1553C525.053 51.8108 525.356 50.1831 525.747 48.542C526.536 45.2342 527.776 41.5027 528.676 39.0748C528.839 38.6338 529.153 38.2645 529.561 38.0317C530.367 37.573 531.248 37.5146 531.958 37.5715C532.69 37.63 533.441 37.8265 534.154 38.0812C535.584 38.5918 537.13 39.4346 538.539 40.3824C539.952 41.3331 541.317 42.4493 542.364 43.5606C542.887 44.1153 543.366 44.7067 543.732 45.3097ZM532.01 41.6154C531.209 43.8823 530.264 46.8452 529.638 49.4698C529.266 51.0312 529.029 52.3822 528.977 53.3643C528.97 53.5002 528.967 53.6213 528.967 53.7284C529.308 53.6769 529.742 53.578 530.262 53.422C531.626 53.0129 533.317 52.2934 534.975 51.4217C536.636 50.5489 538.171 49.5719 539.251 48.6853C539.795 48.2382 540.161 47.8647 540.37 47.5879C540.381 47.5725 540.392 47.558 540.402 47.5442C540.379 47.4999 540.35 47.447 540.312 47.3852C540.137 47.0956 539.853 46.7284 539.452 46.3033C538.653 45.4547 537.531 44.5253 536.306 43.7015C535.077 42.8747 533.833 42.2138 532.809 41.8482C532.497 41.7369 532.231 41.6619 532.01 41.6154ZM540.512 47.3668C540.512 47.3668 540.511 47.3697 540.508 47.3757C540.51 47.3698 540.511 47.3668 540.512 47.3668ZM528.358 53.7652C528.358 53.7652 528.358 53.7653 528.359 53.7655ZM529.019 54.3365C529.024 54.3501 529.026 54.3578 529.026 54.3582C529.025 54.3587 529.023 54.3519 529.019 54.3365Z" fill="#4A4D50"/>
<path d="M537.102 67.6641C536.117 65.7296 543.682 58.7346 547.587 55.4789C550.559 55.4889 555.34 65.6131 554.047 68.1735C552.755 70.7339 538.332 70.0821 537.102 67.6641Z" fill="#FFDC4E"/>
<path fill-rule="evenodd" clip-rule="evenodd" d="M556.262 66.8441C556.279 67.5154 556.207 68.3332 555.833 69.0748C555.348 70.0351 554.439 70.5451 553.785 70.8249C553.062 71.1336 552.217 71.342 551.359 71.4864C549.63 71.777 547.524 71.86 545.477 71.7843C543.428 71.7084 541.336 71.4696 539.632 71.0713C538.785 70.8734 537.965 70.6205 537.273 70.292C536.661 70.0019 535.785 69.487 535.319 68.5711C534.847 67.6427 535.018 66.7014 535.201 66.1191C535.398 65.4931 535.734 64.8769 536.095 64.3171C536.825 63.186 537.898 61.9249 539.054 60.6963C541.385 58.2199 544.318 55.6007 546.307 53.9427C546.668 53.6415 547.124 53.4773 547.594 53.4789C548.521 53.482 549.314 53.8695 549.902 54.2725C550.507 54.6874 551.061 55.2318 551.553 55.8077C552.539 56.9622 553.46 58.4625 554.21 59.9859C554.963 61.5141 555.591 63.1614 555.946 64.6463C556.123 65.3876 556.245 66.1389 556.262 66.8441ZM547.934 57.8059C546.111 59.3731 543.816 61.4727 541.967 63.4376C540.867 64.6065 539.989 65.6603 539.456 66.4865C539.382 66.6009 539.319 66.7044 539.266 66.7973C539.588 66.9226 540.013 67.0527 540.542 67.1762C541.928 67.5003 543.753 67.7177 545.625 67.787C547.5 67.8564 549.318 67.7734 550.695 67.5417C551.39 67.4249 551.894 67.2831 552.212 67.1468C552.23 67.1393 552.246 67.132 552.262 67.125C552.264 67.0752 552.265 67.0147 552.263 66.9424C552.255 66.6038 552.192 66.1441 552.056 65.5759C551.785 64.4421 551.275 63.0777 550.622 61.7535C549.968 60.4246 549.217 59.232 548.511 58.4053C548.296 58.1538 548.103 57.9561 547.934 57.8059ZM552.445 67.0256C552.445 67.0257 552.443 67.0277 552.438 67.0315C552.442 67.0275 552.445 67.0256 552.445 67.0256ZM538.719 66.5261C538.719 66.5261 538.72 66.5264 538.72 66.527ZM539.008 67.3505C539.006 67.3648 539.004 67.3725 539.003 67.3728C539.003 67.3731 539.004 67.3659 539.008 67.3505Z" fill="#4A4D50"/>
<path d="M515.078 52.2719C513.055 53.0572 506.854 44.8289 504.007 40.6166C504.315 37.6611 514.867 33.92 517.285 35.4631C519.703 37.0062 517.607 51.2903 515.078 52.2719Z" fill="#FFDC4E"/>
<path fill-rule="evenodd" clip-rule="evenodd" d="M516.185 33.126C516.854 33.177 517.661 33.3302 518.361 33.7772C519.268 34.3559 519.684 35.3113 519.897 35.9905C520.132 36.7401 520.254 37.6019 520.312 38.4703C520.427 40.2194 520.299 42.3237 520.018 44.3522C519.737 46.3831 519.289 48.441 518.722 50.0967C518.44 50.9192 518.106 51.71 517.71 52.3656C517.36 52.9447 516.76 53.7646 515.802 54.1364C514.831 54.5133 513.911 54.2481 513.35 54.0076C512.747 53.7491 512.168 53.3531 511.647 52.9374C510.595 52.0975 509.448 50.9036 508.341 49.63C506.111 47.0628 503.8 43.8819 502.35 41.7367C502.086 41.3471 501.969 40.8771 502.017 40.4093C502.113 39.4871 502.579 38.7374 503.039 38.1928C503.512 37.6321 504.109 37.1356 504.732 36.704C505.979 35.8389 507.564 35.073 509.155 34.4791C510.751 33.8835 512.453 33.4237 513.966 33.2197C514.722 33.1178 515.482 33.0725 516.185 33.126ZM506.357 40.5049C507.733 42.4764 509.592 44.9698 511.361 47.0068C512.414 48.2186 513.374 49.1979 514.143 49.8115C514.249 49.8964 514.346 49.9694 514.433 50.0318C514.59 49.7242 514.762 49.3139 514.938 48.8002C515.399 47.4533 515.799 45.6597 516.056 43.8039C516.313 41.9458 516.413 40.1284 516.32 38.7345C516.274 38.0315 516.183 37.5165 516.08 37.1858C516.074 37.1674 516.068 37.1502 516.063 37.1342C516.014 37.127 515.954 37.12 515.881 37.1145C515.544 37.0888 515.08 37.1057 514.501 37.1838C513.346 37.3396 511.937 37.7105 510.554 38.2266C509.166 38.7446 507.904 39.3717 507.011 39.9911C506.739 40.1796 506.523 40.3526 506.357 40.5049ZM515.982 36.9418C515.983 36.9417 515.984 36.9443 515.988 36.95C515.984 36.9448 515.982 36.942 515.982 36.9418ZM514.108 50.5484C514.108 50.5484 514.109 50.548 514.109 50.5474ZM514.957 50.3438C514.972 50.3474 514.979 50.3502 514.979 50.3507C514.979 50.3512 514.972 50.3494 514.957 50.3438Z" fill="#4A4D50"/>
<path d="M110.572 166.151C111.065 162.95 118.476 159.175 122.12 157.688L142.588 207.843C139.325 208.425 132.255 209.36 130.082 208.446C127.366 207.304 109.955 170.154 110.572 166.151Z" fill="#FFDC4E"/>
<path fill-rule="evenodd" clip-rule="evenodd" d="M113.538 158.756C116.105 157.099 119.044 155.703 120.986 154.911C122.52 154.285 124.272 155.021 124.898 156.555L145.366 206.71C145.708 207.549 145.653 208.497 145.216 209.291C144.779 210.084 144.006 210.638 143.114 210.797C141.412 211.1 138.729 211.494 136.161 211.696C134.88 211.797 133.571 211.854 132.401 211.818C131.333 211.784 130.007 211.669 128.92 211.212L130.052 208.517L128.92 211.212C128.364 210.978 127.964 210.637 127.751 210.44C127.504 210.212 127.283 209.964 127.093 209.734C126.713 209.273 126.317 208.708 125.922 208.098C125.124 206.867 124.18 205.227 123.162 203.346C121.12 199.57 118.68 194.636 116.357 189.636C114.033 184.636 111.802 179.52 110.184 175.38C109.377 173.315 108.705 171.448 108.249 169.937C108.022 169.184 107.834 168.471 107.713 167.838C107.609 167.296 107.485 166.486 107.607 165.694C107.876 163.946 108.978 162.546 109.943 161.574C110.975 160.534 112.258 159.582 113.538 158.756ZM113.579 166.561C113.586 166.602 113.595 166.651 113.606 166.709C113.673 167.061 113.798 167.557 113.994 168.205C114.383 169.497 114.991 171.197 115.772 173.196C117.33 177.183 119.506 182.177 121.798 187.107C124.089 192.037 126.473 196.855 128.44 200.491C129.427 202.316 130.284 203.797 130.956 204.833C131.214 205.231 131.424 205.531 131.586 205.744C131.801 205.774 132.127 205.806 132.588 205.821C133.456 205.848 134.526 205.806 135.691 205.715C136.581 205.645 137.493 205.548 138.367 205.441L120.519 161.706C119.295 162.312 117.981 163.03 116.792 163.797C115.701 164.501 114.811 165.186 114.201 165.801C113.821 166.183 113.652 166.437 113.579 166.561Z" fill="#4A4D50"/>
<path d="M270.42 100.169C267.827 98.2263 259.891 100.715 256.247 102.202L276.715 152.357C279.454 150.489 285.159 146.211 286.072 144.038C287.214 141.321 273.661 102.596 270.42 100.169Z" fill="#FFDC4E"/>
<path fill-rule="evenodd" clip-rule="evenodd" d="M263.127 96.96C260.133 97.5722 257.056 98.6316 255.114 99.4241C253.58 100.05 252.844 101.801 253.47 103.335L273.938 153.49C274.28 154.329 274.983 154.968 275.851 155.229C276.718 155.491 277.657 155.346 278.406 154.835C279.835 153.861 282.027 152.265 284.003 150.613C284.989 149.788 285.964 148.914 286.775 148.069C287.514 147.298 288.381 146.287 288.838 145.2L286.143 144.068L288.838 145.2C289.071 144.645 289.118 144.121 289.133 143.831C289.15 143.496 289.135 143.163 289.109 142.867C289.058 142.272 288.945 141.59 288.801 140.878C288.51 139.44 288.037 137.608 287.448 135.552C286.265 131.425 284.556 126.193 282.718 120.995C280.88 115.796 278.895 110.581 277.154 106.491C276.286 104.451 275.459 102.646 274.728 101.248C274.363 100.552 273.998 99.9103 273.642 99.3733C273.337 98.9134 272.859 98.2475 272.218 97.7675C270.802 96.707 269.036 96.4776 267.667 96.4581C266.201 96.4372 264.618 96.6549 263.127 96.96ZM268.557 102.565C268.581 102.6 268.61 102.641 268.642 102.69C268.84 102.988 269.098 103.43 269.412 104.03C270.037 105.225 270.792 106.866 271.633 108.84C273.309 112.779 275.249 117.869 277.061 122.995C278.874 128.121 280.541 133.231 281.68 137.205C282.252 139.2 282.675 140.857 282.92 142.067C283.014 142.532 283.074 142.893 283.107 143.159C282.974 143.331 282.764 143.582 282.445 143.915C281.844 144.541 281.05 145.26 280.153 146.011C279.469 146.583 278.75 147.152 278.05 147.687L260.202 103.952C261.501 103.529 262.942 103.122 264.329 102.838C265.601 102.578 266.715 102.445 267.581 102.457C268.12 102.465 268.419 102.528 268.557 102.565Z" fill="#4A4D50"/>
<path d="M168.13 88.9598L169.641 113.836C169.807 116.569 172.609 118.332 175.145 117.297L188.849 111.704C191.313 110.699 192.126 107.612 190.478 105.523L175.263 86.2397C172.837 83.164 167.893 85.0492 168.13 88.9598Z" fill="white"/>
<path fill-rule="evenodd" clip-rule="evenodd" d="M173.693 87.4785C172.48 85.9407 170.008 86.8833 170.127 88.8386L171.637 113.714C171.72 115.081 173.121 115.962 174.389 115.445L188.093 109.852C189.325 109.35 189.732 107.806 188.908 106.762L173.693 87.4785ZM166.134 89.081C165.778 83.2152 173.193 80.3874 176.833 85.0009L192.048 104.284C194.521 107.418 193.301 112.048 189.605 113.556L175.9 119.149C172.097 120.701 167.893 118.058 167.644 113.957L166.134 89.081Z" fill="#4A4D50"/>
<path d="M149.765 216.917C142.784 214.515 117.186 149.951 119.85 143.613C125.086 136.225 240.684 86.8002 248.452 91.131C256.221 95.4619 280.769 157.454 275.795 165.484C270.821 173.515 156.746 219.318 149.765 216.917Z" fill="white"/>
<path fill-rule="evenodd" clip-rule="evenodd" d="M247.712 86.8906C248.404 86.9421 249.421 87.0914 250.4 87.6373C251.482 88.2404 252.392 89.1404 253.109 89.962C253.87 90.835 254.638 91.8834 255.398 93.034C256.921 95.3378 258.576 98.2958 260.27 101.639C263.664 108.34 267.361 116.88 270.641 125.497C273.917 134.108 276.822 142.91 278.598 150.132C279.483 153.731 280.117 157.055 280.353 159.822C280.47 161.204 280.498 162.551 280.372 163.78C280.253 164.949 279.964 166.351 279.196 167.59C278.404 168.869 277.022 169.926 275.928 170.69C274.662 171.575 273.049 172.551 271.189 173.59C267.459 175.674 262.469 178.159 256.682 180.869C245.093 186.295 230.079 192.727 215.034 198.82C199.988 204.913 184.852 210.691 173.015 214.801C167.105 216.854 161.96 218.511 158.035 219.584C156.082 220.118 154.35 220.53 152.94 220.767C152.238 220.886 151.536 220.974 150.883 221C150.324 221.022 149.398 221.021 148.463 220.699C147.075 220.221 146.014 219.23 145.335 218.508C144.565 217.688 143.8 216.679 143.056 215.584C141.563 213.383 139.916 210.478 138.214 207.171C134.799 200.535 130.977 191.92 127.48 183.235C123.982 174.547 120.771 165.695 118.593 158.572C117.508 155.021 116.654 151.818 116.156 149.242C115.909 147.96 115.732 146.74 115.676 145.663C115.627 144.734 115.626 143.339 116.162 142.063C116.276 141.794 116.418 141.538 116.586 141.3C117.388 140.17 118.735 139.185 119.834 138.443C121.104 137.586 122.728 136.617 124.613 135.565C128.393 133.458 133.452 130.898 139.332 128.08C151.104 122.438 166.353 115.674 181.661 109.286C196.964 102.9 212.391 96.8619 224.514 92.6837C230.563 90.5989 235.872 88.9478 239.966 87.9528C242.002 87.458 243.85 87.0972 245.392 86.9449C246.162 86.8688 246.955 86.8342 247.712 86.8906ZM123.683 145.514C123.728 146.06 123.832 146.794 124.012 147.726C124.432 149.904 125.195 152.802 126.244 156.233C128.335 163.074 131.46 171.701 134.901 180.247C138.343 188.795 142.063 197.167 145.327 203.51C146.965 206.693 148.443 209.276 149.675 211.091C150.259 211.95 150.735 212.559 151.097 212.956C151.244 212.937 151.414 212.912 151.611 212.878C152.642 212.705 154.082 212.371 155.925 211.867C159.595 210.864 164.546 209.274 170.39 207.244C182.061 203.191 197.064 197.466 212.031 191.405C226.999 185.343 241.873 178.969 253.29 173.624C259.007 170.947 263.8 168.555 267.287 166.606C269.036 165.629 270.391 164.8 271.346 164.133C271.911 163.738 272.216 163.48 272.358 163.356C272.375 163.268 272.396 163.141 272.414 162.967C272.471 162.403 272.474 161.59 272.381 160.5C272.196 158.323 271.668 155.453 270.829 152.043C269.159 145.248 266.373 136.776 263.164 128.343C259.957 119.917 256.371 111.645 253.133 105.254C251.511 102.051 250.012 99.3925 248.725 97.4458C248.081 96.4711 247.529 95.7358 247.08 95.2209C246.95 95.0715 246.84 94.9551 246.752 94.8659C246.602 94.8711 246.413 94.883 246.179 94.9061C245.172 95.0056 243.734 95.2699 241.856 95.7265C238.121 96.6343 233.084 98.1917 227.121 100.247C215.22 104.349 199.964 110.317 184.742 116.669C169.525 123.019 154.407 129.726 142.789 135.294C136.974 138.081 132.082 140.561 128.508 142.553C126.716 143.552 125.312 144.397 124.309 145.074C124.056 145.245 123.85 145.392 123.683 145.514ZM247.179 94.8754C247.179 94.8758 247.166 94.8747 247.143 94.8706C247.168 94.873 247.18 94.875 247.179 94.8754ZM150.457 213.006C150.458 213.006 150.472 213.006 150.499 213.008C150.47 213.008 150.456 213.007 150.457 213.006Z" fill="#4A4D50"/>
<path d="M173.239 162.721C175.268 167.693 172.882 173.368 167.91 175.397C162.939 177.426 157.263 175.04 155.235 170.068C153.206 165.097 155.591 159.421 160.563 157.393C165.535 155.364 171.21 157.749 173.239 162.721Z" fill="#4A4D50"/>
<path d="M240.009 134.906C242.038 139.877 239.653 145.553 234.681 147.581C229.709 149.61 224.034 147.225 222.005 142.253C219.976 137.281 222.362 131.606 227.333 129.577C232.305 127.548 237.98 129.934 240.009 134.906Z" fill="#4A4D50"/>
<path fill-rule="evenodd" clip-rule="evenodd" d="M173.365 67.7661C175.284 72.4681 173.028 77.8354 168.326 79.7543C163.624 81.6732 158.257 79.417 156.338 74.7149C154.419 70.0129 156.675 64.6456 161.377 62.7267C166.079 60.8079 171.447 63.0641 173.365 67.7661Z" fill="#FFDC4E"/>
<path d="M182.108 170.452C181.482 168.918 182.218 167.167 183.752 166.541L219.35 152.014C220.884 151.388 222.635 152.124 223.261 153.658L226.861 162.48C227.487 164.014 226.751 165.765 225.217 166.391L189.62 180.918C188.086 181.544 186.335 180.808 185.709 179.274L182.108 170.452Z" fill="white"/>
<path fill-rule="evenodd" clip-rule="evenodd" d="M186.19 169.867L189.034 176.837L222.78 163.065L219.936 156.095L186.19 169.867ZM183.752 166.541C182.218 167.167 181.482 168.918 182.108 170.452L185.709 179.274C186.335 180.808 188.086 181.544 189.62 180.918L225.217 166.391C226.751 165.765 227.487 164.014 226.861 162.48L223.261 153.658C222.635 152.124 220.884 151.388 219.35 152.014L183.752 166.541Z" fill="#4A4D50"/>
<path d="M130.25 48.042C127.846 48.9853 113.28 42.1779 112.256 40.3792C110.415 38.3117 118.16 27.9872 119.852 27.5401C121.544 27.0931 127.155 36.7948 127.589 37.1205C128.023 37.4461 135.812 28.8713 138.043 29.5148C140.274 30.1583 145.603 50.6344 144.458 50.8049C143.312 50.9755 136.833 40.6224 135.688 40.793C134.542 40.9635 132.653 47.0988 130.25 48.042Z" fill="#FFDC4E"/>
<path fill-rule="evenodd" clip-rule="evenodd" d="M118.349 26.0773C118.569 25.9287 118.916 25.7186 119.341 25.6064C119.953 25.4447 120.498 25.5524 120.869 25.6811C121.241 25.8101 121.558 26.0011 121.806 26.1759C122.299 26.5238 122.773 26.9927 123.197 27.4607C124.058 28.4123 124.991 29.6808 125.837 30.9021C126.659 32.0901 127.441 33.2967 128.044 34.2283C128.248 34.0415 128.471 33.8363 128.707 33.6186C129.346 33.0301 130.083 32.3511 130.815 31.7021C131.968 30.6794 133.246 29.6049 134.412 28.8191C134.991 28.4287 135.611 28.062 136.224 27.8152C136.766 27.5965 137.658 27.3221 138.598 27.5931C139.3 27.7957 139.766 28.271 140.004 28.5452C140.284 28.8669 140.529 29.2426 140.741 29.6116C141.168 30.3556 141.596 31.3113 142.008 32.3538C142.838 34.4544 143.698 37.1512 144.442 39.7958C145.186 42.4435 145.83 45.0966 146.217 47.1214C146.408 48.1219 146.549 49.0305 146.598 49.7277C146.621 50.0566 146.633 50.4578 146.578 50.8344C146.552 51.0108 146.491 51.3355 146.31 51.675C146.119 52.0311 145.645 52.6501 144.752 52.7831C143.96 52.9011 143.35 52.5514 143.154 52.4335C142.876 52.2667 142.633 52.0618 142.444 51.8872C142.056 51.5299 141.637 51.0591 141.229 50.5686C140.409 49.5847 139.431 48.2788 138.497 47.0306L138.472 46.9977C137.55 45.7661 136.669 44.5913 135.942 43.708C135.841 43.892 135.736 44.0879 135.623 44.2966C135.491 44.5423 135.349 44.8057 135.195 45.0881C134.731 45.935 134.177 46.903 133.552 47.7356C132.965 48.5186 132.118 49.4573 130.98 49.9038C130.135 50.2354 129.167 50.1354 128.517 50.0329C127.753 49.9125 126.881 49.6868 125.976 49.4057C124.155 48.8408 122 47.9893 119.923 47.0665C117.843 46.142 115.791 45.1233 114.176 44.2082C113.371 43.7524 112.644 43.3049 112.065 42.8933C111.776 42.688 111.498 42.4727 111.256 42.2531C111.076 42.0898 110.837 41.8542 110.635 41.5565C109.997 40.737 109.936 39.7688 109.991 39.091C110.052 38.336 110.284 37.5566 110.565 36.8369C111.132 35.3825 112.066 33.7498 113.061 32.2476C114.066 30.7314 115.19 29.2609 116.191 28.123C116.689 27.5565 117.182 27.0434 117.635 26.6408C117.861 26.44 118.102 26.2438 118.349 26.0773ZM136.716 42.4466C136.755 42.4031 136.752 42.4149 136.71 42.4532C136.712 42.4509 136.714 42.4487 136.716 42.4466ZM113.975 39.5055C113.975 39.5058 113.974 39.5002 113.974 39.4879C113.976 39.4991 113.976 39.5052 113.975 39.5055ZM113.987 39.3288C114.074 39.4039 114.204 39.5057 114.384 39.6338C114.807 39.9351 115.405 40.3071 116.147 40.7278C117.626 41.5654 119.558 42.5268 121.548 43.4112C123.541 44.2972 125.542 45.083 127.161 45.5854C127.975 45.838 128.643 46.0034 129.14 46.0817C129.38 46.1196 129.528 46.1281 129.604 46.1303C129.649 46.099 129.708 46.053 129.78 45.9875C129.943 45.8395 130.135 45.6254 130.352 45.3352C130.794 44.7468 131.234 43.9935 131.686 43.1673C131.801 42.9579 131.92 42.7375 132.04 42.5139C132.359 41.9209 132.69 41.3063 132.987 40.8208C133.195 40.4808 133.446 40.103 133.732 39.7828C133.948 39.5412 134.509 38.9464 135.393 38.8147C136.186 38.6967 136.795 39.0464 136.992 39.1643C137.27 39.3311 137.513 39.536 137.702 39.7106C138.09 40.0679 138.508 40.5387 138.917 41.0292C139.698 41.9667 140.623 43.1964 141.517 44.3901C141.242 43.269 140.928 42.0776 140.591 40.8786C139.867 38.3024 139.048 35.7489 138.288 33.8239C137.931 32.922 137.607 32.2096 137.333 31.7124C137.141 31.8179 136.912 31.9575 136.648 32.1358C135.712 32.7667 134.597 33.6948 133.469 34.6947C132.755 35.3286 132.089 35.9418 131.476 36.5068C131.11 36.8441 130.763 37.1643 130.434 37.4615C130.021 37.8353 129.625 38.1856 129.302 38.4374C129.151 38.5549 128.943 38.7102 128.717 38.8343C128.613 38.8912 128.399 39.0021 128.121 39.0695C127.917 39.1187 127.135 39.2797 126.389 38.7203C126.183 38.5661 126.042 38.397 126.005 38.3524L126.001 38.3484C125.939 38.2747 125.883 38.2006 125.838 38.1394C125.747 38.0152 125.644 37.866 125.54 37.7111C125.331 37.3985 125.059 36.9782 124.756 36.5097L124.756 36.5096L124.751 36.5025C124.136 35.5522 123.36 34.3515 122.548 33.1789C121.725 31.9899 120.911 30.8964 120.231 30.1446C120.149 30.0547 120.074 29.974 120.004 29.9017C119.769 30.132 119.496 30.4213 119.194 30.7651C118.324 31.7534 117.31 33.077 116.396 34.4563C115.474 35.8496 114.711 37.2136 114.291 38.2905C114.105 38.7686 114.017 39.1118 113.987 39.3288ZM120.614 29.3755C120.614 29.3758 120.609 29.3788 120.6 29.3839C120.61 29.3778 120.614 29.3753 120.614 29.3755ZM119.463 29.4201C119.461 29.419 119.46 29.4184 119.46 29.4184C119.46 29.4183 119.461 29.4189 119.463 29.4201ZM137.884 31.4707C137.884 31.4712 137.877 31.4731 137.863 31.4751C137.877 31.4713 137.884 31.4703 137.884 31.4707ZM136.986 31.1706C136.972 31.1573 136.965 31.1493 136.965 31.1486C136.965 31.1478 136.972 31.1545 136.986 31.1706Z" fill="#4A4D50"/>
<path d="M159.914 24.0401C157.671 22.7615 153.825 7.15014 154.582 5.22313C155.036 2.49229 167.934 2.03924 169.345 3.07567C170.755 4.1121 166.726 14.5702 166.745 15.1126C166.764 15.6549 178.329 16.3347 179.228 18.475C180.128 20.6153 167.65 43.0513 166.799 42.2668C165.947 41.4822 169.823 24.5066 168.971 23.7221C168.119 22.9375 162.157 25.3188 159.914 24.0401Z" fill="#FFDC4E"/>
<path fill-rule="evenodd" clip-rule="evenodd" d="M169.54 0.987431C169.794 1.06558 170.175 1.20398 170.529 1.46404C171.039 1.83891 171.298 2.33099 171.43 2.70015C171.563 3.07053 171.614 3.43732 171.633 3.73984C171.672 4.34206 171.605 5.00583 171.506 5.62924C171.306 6.89698 170.905 8.41992 170.485 9.84472C170.077 11.2307 169.629 12.597 169.282 13.6509C169.555 13.6926 169.855 13.7372 170.173 13.7845C171.032 13.9124 172.023 14.06 172.988 14.2222C174.508 14.4776 176.146 14.7976 177.49 15.2116C178.157 15.4173 178.832 15.67 179.409 15.9917C179.92 16.2767 180.693 16.7987 181.072 17.7001C181.357 18.3788 181.273 19.0721 181.224 19.3997C181.16 19.8265 181.039 20.2875 180.895 20.7437C180.606 21.6643 180.155 22.7912 179.615 24.0138C178.529 26.4717 177.001 29.5027 175.431 32.4163C173.86 35.3316 172.226 38.1708 170.919 40.2466C170.272 41.2754 169.677 42.1621 169.194 42.7834C168.966 43.0779 168.696 43.4015 168.412 43.6519C168.287 43.762 168.024 43.9822 167.657 44.1295C167.29 44.2772 166.296 44.5227 165.444 43.7379C165.047 43.3726 164.89 42.9507 164.828 42.7572C164.755 42.5288 164.722 42.3153 164.704 42.1586C164.669 41.8425 164.671 41.5026 164.684 41.1926C164.711 40.5579 164.799 39.7543 164.916 38.8822C165.151 37.1333 165.534 34.8861 165.908 32.6877L165.913 32.6587C166.293 30.4263 166.664 28.2455 166.889 26.574C166.93 26.2663 166.966 25.9832 166.995 25.726C166.75 25.7693 166.487 25.8184 166.203 25.8715C165.929 25.9228 165.635 25.9779 165.318 26.0348C164.368 26.2056 163.266 26.3818 162.226 26.4183C161.248 26.4527 159.986 26.3828 158.924 25.7776C158.135 25.3281 157.605 24.5114 157.277 23.9413C156.891 23.2713 156.519 22.4507 156.169 21.5693C155.466 19.7979 154.776 17.5855 154.191 15.3899C153.604 13.1905 153.109 10.9537 152.807 9.12165C152.657 8.20925 152.549 7.36204 152.506 6.65321C152.484 6.29968 152.477 5.94787 152.496 5.62159C152.51 5.37902 152.544 5.04499 152.648 4.70059C152.886 3.69018 153.601 3.03424 154.163 2.65135C154.789 2.22492 155.541 1.91647 156.278 1.68315C157.766 1.21166 159.624 0.914083 161.418 0.745433C163.228 0.575219 165.078 0.526884 166.593 0.591753C167.346 0.624046 168.056 0.685939 168.653 0.785585C168.951 0.83528 169.255 0.899858 169.54 0.987431ZM168.329 25.5604C168.387 25.5633 168.377 25.569 168.32 25.56C168.323 25.5601 168.326 25.5603 168.329 25.5604ZM156.342 6.01331C156.342 6.01326 156.345 6.00921 156.355 6.00136C156.347 6.00945 156.342 6.01337 156.342 6.01331ZM156.487 5.91139C156.483 6.02633 156.485 6.19106 156.498 6.41173C156.53 6.93048 156.615 7.62905 156.754 8.47116C157.03 10.1481 157.495 12.2555 158.056 14.3596C158.618 16.4675 159.262 18.5182 159.887 20.0938C160.202 20.8858 160.492 21.5096 160.743 21.9457C160.865 22.1563 160.951 22.2766 160.997 22.3371C161.05 22.3529 161.123 22.3701 161.219 22.385C161.436 22.4187 161.723 22.4335 162.086 22.4208C162.821 22.3949 163.683 22.2645 164.61 22.0979C164.845 22.0557 165.092 22.0097 165.341 21.963C166.003 21.8391 166.689 21.7108 167.254 21.6373C167.649 21.5858 168.1 21.5439 168.529 21.5654C168.853 21.5816 169.668 21.6453 170.326 22.2509C170.722 22.6162 170.88 23.0381 170.942 23.2316C171.015 23.46 171.048 23.6734 171.065 23.8302C171.1 24.1463 171.098 24.4862 171.085 24.7962C171.059 25.4309 170.97 26.2345 170.853 27.1066C170.618 28.8555 170.236 31.1027 169.861 33.3011L169.856 33.3301C169.784 33.7546 169.712 34.1773 169.641 34.595C170.377 33.316 171.149 31.9305 171.909 30.519C173.453 27.6542 174.928 24.7239 175.956 22.3977C176.472 21.2282 176.855 20.2572 177.079 19.5442C177.103 19.4682 177.125 19.3975 177.143 19.3321C176.929 19.2402 176.654 19.1395 176.312 19.0342C175.233 18.7018 173.811 18.4166 172.325 18.1668C171.383 18.0085 170.488 17.8755 169.663 17.7529C169.171 17.6797 168.703 17.6103 168.266 17.5414C167.716 17.4547 167.194 17.3656 166.795 17.2725C166.609 17.2291 166.357 17.1642 166.119 17.0663C166.01 17.0215 165.789 16.9247 165.562 16.75C165.396 16.6224 164.779 16.1143 164.746 15.1827C164.737 14.926 164.78 14.7096 164.791 14.6526L164.792 14.6475C164.811 14.5531 164.833 14.4628 164.853 14.3894C164.892 14.2403 164.944 14.0668 164.999 13.8888C165.111 13.5293 165.267 13.0538 165.442 12.5237L165.444 12.5156C165.798 11.4405 166.245 10.0821 166.648 8.71405C167.057 7.32697 167.397 6.00715 167.555 5.00555C167.574 4.88587 167.59 4.77626 167.602 4.67638C167.275 4.63836 166.879 4.60769 166.421 4.58809C165.106 4.53175 163.439 4.57302 161.792 4.72787C160.128 4.88429 158.588 5.14723 157.486 5.49635C156.997 5.65136 156.675 5.79861 156.487 5.91139ZM168.395 4.8213C168.394 4.8214 168.389 4.81963 168.379 4.81565C168.39 4.8192 168.395 4.82119 168.395 4.8213ZM177.606 19.5791C177.605 19.5792 177.599 19.5747 177.589 19.5654C177.601 19.5743 177.606 19.579 177.606 19.5791ZM177.274 18.7615C177.274 18.7348 177.276 18.7198 177.277 18.7191C177.278 18.7183 177.278 18.7317 177.274 18.7615Z" fill="#4A4D50"/>
<path d="M568.833 346.135L565.333 348.135L577.099 365.548C577.58 366.261 578.237 366.837 579.006 367.221L579.833 367.635L568.833 346.135Z" fill="#4A4D50"/>
<path d="M165.333 95.6349L163.333 82.1349L168.833 81.6349L174.833 77.1349L179.333 88.1349L172.833 84.6349L169.833 85.1349L165.333 95.6349Z" fill="#4A4D50"/>
<path d="M702.833 160.135L699.333 154.135L697.833 164.135L702.833 160.135Z" fill="#4A4D50"/>
<path d="M80.2163 327.631L79.1239 325.265C78.9389 324.864 78.9326 324.403 79.1065 323.997C79.6123 322.817 81.2479 322.72 81.8896 323.832L87.8333 334.135L85.2845 332.86C83.0504 331.743 81.263 329.899 80.2163 327.631Z" fill="#4A4D50"/>
<path d="M99.8964 372.277L98.3358 368.766C98.033 368.084 98.181 367.287 98.7083 366.76C99.3509 366.117 100.371 366.054 101.089 366.612L113.333 376.135L106.597 376.428C103.723 376.553 101.065 374.906 99.8964 372.277Z" fill="#4A4D50"/>
<path d="M142.043 396.502L140.071 393.051C139.915 392.777 139.824 392.471 139.807 392.157C139.688 390.022 142.525 389.179 143.592 391.031L148.833 400.135L147.424 399.994C145.171 399.769 143.166 398.468 142.043 396.502Z" fill="#4A4D50"/>
</svg>
